<?xml version="1.0" encoding="UTF-8"?>
<svg width="138px" height="24px" viewBox="0 0 138 24" version="1.1" xmlns="http://www.w3.org/2000/svg" xmlns:xlink="http://www.w3.org/1999/xlink">
    <!-- Generator: Sketch 52.6 (67491) - http://www.bohemiancoding.com/sketch -->
    <title>Logo</title>
    <desc>Created with Sketch.</desc>
    <g id="Pages" stroke="none" stroke-width="1" fill="none" fill-rule="evenodd">
        <g id="Homepage-again" transform="translate(-144.000000, -14.000000)" fill="#FFFFFF">
            <g id="Group">
                <g id="Logo" transform="translate(144.000000, 8.000000)">
                    <g transform="translate(-0.000000, 6.000000)" id="Combined-Shape">
                        <path d="M32.716,10.36 L35.98,10.36 C36.4600024,10.36 36.8599984,10.2240014 37.18,9.952 C37.5000016,9.67999864 37.66,9.28800256 37.66,8.776 C37.66,8.19999712 37.5160014,7.79466784 37.228,7.56 C36.9399986,7.32533216 36.5240027,7.208 35.98,7.208 L32.716,7.208 L32.716,10.36 Z M30.716,5.576 L36.268,5.576 C37.2920051,5.576 38.1133302,5.81066432 38.732,6.28 C39.3506698,6.74933568 39.66,7.45866192 39.66,8.408 C39.66,8.98400288 39.5186681,9.47733128 39.236,9.888 C38.9533319,10.2986687 38.5506693,10.6159989 38.028,10.84 L38.028,10.872 C38.7320035,11.0213341 39.2653315,11.3546641 39.628,11.872 C39.9906685,12.3893359 40.172,13.0373294 40.172,13.816 C40.172,14.2640022 40.0920008,14.6826647 39.932,15.072 C39.7719992,15.4613353 39.521335,15.7973319 39.18,16.08 C38.838665,16.3626681 38.401336,16.5866658 37.868,16.752 C37.334664,16.9173342 36.7000037,17 35.964,17 L30.716,17 L30.716,5.576 Z M32.716,15.368 L36.252,15.368 C36.860003,15.368 37.3319983,15.2106682 37.668,14.896 C38.0040017,14.5813318 38.172,14.1360029 38.172,13.56 C38.172,12.9946638 38.0040017,12.5600015 37.668,12.256 C37.3319983,11.9519985 36.860003,11.8 36.252,11.8 L32.716,11.8 L32.716,15.368 Z M41.772,5.576 L43.596,5.576 L43.596,7.304 L41.772,7.304 L41.772,5.576 Z M41.772,8.728 L43.596,8.728 L43.596,17 L41.772,17 L41.772,8.728 Z M44.748,8.728 L46.124,8.728 L46.124,6.248 L47.948,6.248 L47.948,8.728 L49.596,8.728 L49.596,10.088 L47.948,10.088 L47.948,14.504 C47.948,14.696001 47.9559999,14.8613326 47.972,15 C47.9880001,15.1386674 48.025333,15.2559995 48.084,15.352 C48.142667,15.4480005 48.2306661,15.5199998 48.348,15.568 C48.4653339,15.6160002 48.6253323,15.64 48.828,15.64 C48.9560006,15.64 49.0839994,15.6373334 49.212,15.632 C49.3400006,15.6266666 49.4679994,15.6080002 49.596,15.576 L49.596,16.984 C49.3933323,17.0053334 49.196001,17.0266666 49.004,17.048 C48.811999,17.0693334 48.6146677,17.08 48.412,17.08 C47.9319976,17.08 47.5453348,17.0346671 47.252,16.944 C46.9586652,16.8533329 46.7293342,16.7200009 46.564,16.544 C46.3986658,16.3679991 46.286667,16.146668 46.228,15.88 C46.169333,15.613332 46.1346667,15.309335 46.124,14.968 L46.124,10.088 L44.748,10.088 L44.748,8.728 Z M56.492,11.496 C56.417333,10.9839974 56.2120017,10.5973346 55.876,10.336 C55.5399983,10.0746654 55.1160026,9.944 54.604,9.944 C54.3693322,9.944 54.118668,9.9839996 53.852,10.064 C53.585332,10.1440004 53.3400011,10.2933322 53.116,10.512 C52.8919989,10.7306678 52.7053341,11.0346647 52.556,11.424 C52.4066659,11.8133353 52.332,12.3226635 52.332,12.952 C52.332,13.293335 52.3719996,13.634665 52.452,13.976 C52.5320004,14.317335 52.6599991,14.621332 52.836,14.888 C53.0120009,15.154668 53.2386653,15.3706658 53.516,15.536 C53.7933347,15.7013342 54.1293314,15.784 54.524,15.784 C55.057336,15.784 55.4973316,15.6186683 55.844,15.288 C56.1906684,14.9573317 56.4066662,14.4933363 56.492,13.896 L58.316,13.896 C58.1453325,14.9733387 57.7373366,15.7973305 57.092,16.368 C56.4466634,16.9386695 55.590672,17.224 54.524,17.224 C53.8733301,17.224 53.3000025,17.1146678 52.804,16.896 C52.3079975,16.6773322 51.889335,16.3786686 51.548,16 C51.206665,15.6213314 50.9480009,15.1706693 50.772,14.648 C50.5959991,14.1253307 50.508,13.560003 50.508,12.952 C50.508,12.3333302 50.5933325,11.7520027 50.764,11.208 C50.9346675,10.6639973 51.190665,10.192002 51.532,9.792 C51.873335,9.391998 52.2973308,9.07733448 52.804,8.848 C53.3106692,8.61866552 53.9053299,8.504 54.588,8.504 C55.0680024,8.504 55.5239978,8.56533272 55.956,8.688 C56.3880022,8.81066728 56.7719983,8.99466544 57.108,9.24 C57.4440017,9.48533456 57.7186656,9.7946648 57.932,10.168 C58.1453344,10.5413352 58.2733331,10.9839974 58.316,11.496 L56.492,11.496 Z M63.596,17.224 C62.9346634,17.224 62.3453359,17.1146678 61.828,16.896 C61.3106641,16.6773322 60.8733351,16.3760019 60.516,15.992 C60.1586649,15.6079981 59.8866676,15.149336 59.7,14.616 C59.5133324,14.082664 59.42,13.4960032 59.42,12.856 C59.42,12.2266635 59.5133324,11.645336 59.7,11.112 C59.8866676,10.578664 60.1586649,10.1200019 60.516,9.736 C60.8733351,9.35199808 61.3106641,9.05066776 61.828,8.832 C62.3453359,8.61333224 62.9346634,8.504 63.596,8.504 C64.2573366,8.504 64.8466641,8.61333224 65.364,8.832 C65.8813359,9.05066776 66.3186649,9.35199808 66.676,9.736 C67.0333351,10.1200019 67.3053324,10.578664 67.492,11.112 C67.6786676,11.645336 67.772,12.2266635 67.772,12.856 C67.772,13.4960032 67.6786676,14.082664 67.492,14.616 C67.3053324,15.149336 67.0333351,15.6079981 66.676,15.992 C66.3186649,16.3760019 65.8813359,16.6773322 65.364,16.896 C64.8466641,17.1146678 64.2573366,17.224 63.596,17.224 Z M63.596,15.784 C64.0013354,15.784 64.3533318,15.6986675 64.652,15.528 C64.9506682,15.3573325 65.195999,15.1333347 65.388,14.856 C65.580001,14.5786653 65.7213329,14.2666684 65.812,13.92 C65.9026671,13.5733316 65.948,13.2186685 65.948,12.856 C65.948,12.5039982 65.9026671,12.1520018 65.812,11.8 C65.7213329,11.4479982 65.580001,11.1360014 65.388,10.864 C65.195999,10.5919986 64.9506682,10.3706675 64.652,10.2 C64.3533318,10.0293325 64.0013354,9.944 63.596,9.944 C63.1906646,9.944 62.8386682,10.0293325 62.54,10.2 C62.2413318,10.3706675 61.996001,10.5919986 61.804,10.864 C61.611999,11.1360014 61.4706671,11.4479982 61.38,11.8 C61.2893329,12.1520018 61.244,12.5039982 61.244,12.856 C61.244,13.2186685 61.2893329,13.5733316 61.38,13.92 C61.4706671,14.2666684 61.611999,14.5786653 61.804,14.856 C61.996001,15.1333347 62.2413318,15.3573325 62.54,15.528 C62.8386682,15.6986675 63.1906646,15.784 63.596,15.784 Z M69.34,5.576 L71.164,5.576 L71.164,7.304 L69.34,7.304 L69.34,5.576 Z M69.34,8.728 L71.164,8.728 L71.164,17 L69.34,17 L69.34,8.728 Z M73.148,8.728 L74.876,8.728 L74.876,9.944 L74.908,9.976 C75.1853347,9.51733104 75.5479978,9.15733464 75.996,8.896 C76.4440022,8.63466536 76.9399973,8.504 77.484,8.504 C78.3906712,8.504 79.1053307,8.73866432 79.628,9.208 C80.1506693,9.67733568 80.412,10.3813286 80.412,11.32 L80.412,17 L78.588,17 L78.588,11.8 C78.5666666,11.1493301 78.4280013,10.6773348 78.172,10.384 C77.9159987,10.0906652 77.5160027,9.944 76.972,9.944 C76.6626651,9.944 76.3853346,9.99999944 76.14,10.112 C75.8946654,10.2240006 75.6866675,10.3786657 75.516,10.576 C75.3453325,10.7733343 75.2120005,11.005332 75.116,11.272 C75.0199995,11.538668 74.972,11.8213318 74.972,12.12 L74.972,17 L73.148,17 L73.148,8.728 Z M83.708,14.344 C83.7613336,14.877336 83.9639982,15.2506656 84.316,15.464 C84.6680018,15.6773344 85.0893309,15.784 85.58,15.784 C85.7506675,15.784 85.9453322,15.7706668 86.164,15.744 C86.3826678,15.7173332 86.587999,15.666667 86.78,15.592 C86.972001,15.517333 87.1293327,15.4080007 87.252,15.264 C87.3746673,15.1199993 87.4306667,14.9306678 87.42,14.696 C87.4093333,14.4613322 87.3240008,14.2693341 87.164,14.12 C87.0039992,13.9706659 86.7986679,13.8506671 86.548,13.76 C86.2973321,13.6693329 86.0120016,13.5920003 85.692,13.528 C85.3719984,13.4639997 85.0466683,13.394667 84.716,13.32 C84.374665,13.245333 84.0466682,13.1546672 83.732,13.048 C83.4173318,12.9413328 83.1346679,12.7973342 82.884,12.616 C82.6333321,12.4346658 82.4333341,12.2026681 82.284,11.92 C82.1346659,11.6373319 82.06,11.2880021 82.06,10.872 C82.06,10.4239978 82.1693322,10.0480015 82.388,9.744 C82.6066678,9.43999848 82.8839983,9.1946676 83.22,9.008 C83.5560017,8.8213324 83.9293313,8.69066704 84.34,8.616 C84.7506687,8.54133296 85.1426648,8.504 85.516,8.504 C85.9426688,8.504 86.3506647,8.54933288 86.74,8.64 C87.1293353,8.73066712 87.4813318,8.87733232 87.796,9.08 C88.1106682,9.28266768 88.371999,9.54666504 88.58,9.872 C88.788001,10.197335 88.9186664,10.589331 88.972,11.048 L87.068,11.048 C86.9826662,10.6106645 86.7826682,10.3173341 86.468,10.168 C86.1533318,10.0186659 85.7933354,9.944 85.388,9.944 C85.2599994,9.944 85.1080009,9.95466656 84.932,9.976 C84.7559991,9.99733344 84.5906674,10.037333 84.436,10.096 C84.2813326,10.154667 84.1506672,10.2399994 84.044,10.352 C83.9373328,10.4640006 83.884,10.6106658 83.884,10.792 C83.884,11.0160011 83.9613326,11.1973326 84.116,11.336 C84.2706674,11.4746674 84.4733321,11.5893329 84.724,11.68 C84.9746679,11.7706671 85.2599984,11.8479997 85.58,11.912 C85.9000016,11.9760003 86.230665,12.045333 86.572,12.12 C86.9026683,12.194667 87.2279984,12.2853328 87.548,12.392 C87.8680016,12.4986672 88.1533321,12.6426658 88.404,12.824 C88.6546679,13.0053342 88.8573326,13.2346653 89.012,13.512 C89.1666674,13.7893347 89.244,14.1306646 89.244,14.536 C89.244,15.0266691 89.1320011,15.442665 88.908,15.784 C88.6839989,16.125335 88.3933351,16.4026656 88.036,16.616 C87.6786649,16.8293344 87.2813355,16.9839995 86.844,17.08 C86.4066645,17.1760005 85.9746688,17.224 85.548,17.224 C85.0253307,17.224 84.5426689,17.1653339 84.1,17.048 C83.6573311,16.9306661 83.273335,16.7520012 82.948,16.512 C82.622665,16.2719988 82.3666676,15.9733351 82.18,15.616 C81.9933324,15.2586649 81.8946667,14.8346691 81.884,14.344 L83.708,14.344 Z M95.34,5.576 L100.076,5.576 C100.950671,5.576 101.707997,5.72533184 102.348,6.024 C102.988003,6.32266816 103.510665,6.73066408 103.916,7.248 C104.321335,7.76533592 104.622666,8.3706632 104.82,9.064 C105.017334,9.7573368 105.116,10.4986627 105.116,11.288 C105.116,12.0773373 105.017334,12.8186632 104.82,13.512 C104.622666,14.2053368 104.321335,14.8106641 103.916,15.328 C103.510665,15.8453359 102.988003,16.2533318 102.348,16.552 C101.707997,16.8506682 100.950671,17 100.076,17 L95.34,17 L95.34,5.576 Z M97.34,15.368 L99.308,15.368 C100.086671,15.368 100.723998,15.264001 101.22,15.056 C101.716002,14.847999 102.105332,14.5600018 102.388,14.192 C102.670668,13.8239982 102.862666,13.3920025 102.964,12.896 C103.065334,12.3999975 103.116,11.8640029 103.116,11.288 C103.116,10.7119971 103.065334,10.1760025 102.964,9.68 C102.862666,9.18399752 102.670668,8.75200184 102.388,8.384 C102.105332,8.01599816 101.716002,7.72800104 101.22,7.52 C100.723998,7.31199896 100.086671,7.208 99.308,7.208 L97.34,7.208 L97.34,15.368 Z M106.684,5.576 L108.508,5.576 L108.508,7.304 L106.684,7.304 L106.684,5.576 Z M106.684,8.728 L108.508,8.728 L108.508,17 L106.684,17 L106.684,8.728 Z M110.492,8.728 L112.204,8.728 L112.204,10.328 L112.236,10.328 C112.289334,10.1039989 112.393333,9.8853344 112.548,9.672 C112.702667,9.4586656 112.889332,9.26400088 113.108,9.088 C113.326668,8.91199912 113.569332,8.7706672 113.836,8.664 C114.102668,8.5573328 114.374665,8.504 114.652,8.504 C114.865334,8.504 115.012,8.50933328 115.092,8.52 C115.172,8.53066672 115.254666,8.54133328 115.34,8.552 L115.34,10.312 C115.211999,10.2906666 115.081334,10.2720001 114.948,10.256 C114.814666,10.2399999 114.684001,10.232 114.556,10.232 C114.246665,10.232 113.956001,10.2933327 113.684,10.416 C113.411999,10.5386673 113.174668,10.7199988 112.972,10.96 C112.769332,11.2000012 112.609334,11.4959982 112.492,11.848 C112.374666,12.2000018 112.316,12.605331 112.316,13.064 L112.316,17 L110.492,17 L110.492,8.728 Z M121.516,12.136 C121.494667,11.8479986 121.433334,11.570668 121.332,11.304 C121.230666,11.037332 121.092001,10.8053343 120.916,10.608 C120.739999,10.4106657 120.526668,10.2506673 120.276,10.128 C120.025332,10.0053327 119.745335,9.944 119.436,9.944 C119.115998,9.944 118.825335,9.99999944 118.564,10.112 C118.302665,10.2240006 118.078668,10.3786657 117.892,10.576 C117.705332,10.7733343 117.556001,11.005332 117.444,11.272 C117.331999,11.538668 117.270667,11.8266651 117.26,12.136 L121.516,12.136 Z M117.26,13.336 C117.26,13.6560016 117.305333,13.9653318 117.396,14.264 C117.486667,14.5626682 117.622666,14.8239989 117.804,15.048 C117.985334,15.2720011 118.214665,15.450666 118.492,15.584 C118.769335,15.717334 119.099998,15.784 119.484,15.784 C120.017336,15.784 120.446665,15.6693345 120.772,15.44 C121.097335,15.2106655 121.339999,14.866669 121.5,14.408 L123.228,14.408 C123.132,14.8560022 122.966668,15.2559982 122.732,15.608 C122.497332,15.9600018 122.214668,16.2559988 121.884,16.496 C121.553332,16.7360012 121.182669,16.9173327 120.772,17.04 C120.361331,17.1626673 119.932002,17.224 119.484,17.224 C118.83333,17.224 118.257336,17.1173344 117.756,16.904 C117.254664,16.6906656 116.830668,16.3920019 116.484,16.008 C116.137332,15.6239981 115.876001,15.165336 115.7,14.632 C115.523999,14.098664 115.436,13.5120032 115.436,12.872 C115.436,12.2853304 115.529332,11.7280026 115.716,11.2 C115.902668,10.6719974 116.169332,10.208002 116.516,9.808 C116.862668,9.407998 117.281331,9.09066784 117.772,8.856 C118.262669,8.62133216 118.81733,8.504 119.436,8.504 C120.08667,8.504 120.670664,8.63999864 121.188,8.912 C121.705336,9.18400136 122.134665,9.54399776 122.476,9.992 C122.817335,10.4400022 123.065333,10.9546638 123.22,11.536 C123.374667,12.1173362 123.414667,12.7173302 123.34,13.336 L117.26,13.336 Z M130.316,11.496 C130.241333,10.9839974 130.036002,10.5973346 129.7,10.336 C129.363998,10.0746654 128.940003,9.944 128.428,9.944 C128.193332,9.944 127.942668,9.9839996 127.676,10.064 C127.409332,10.1440004 127.164001,10.2933322 126.94,10.512 C126.715999,10.7306678 126.529334,11.0346647 126.38,11.424 C126.230666,11.8133353 126.156,12.3226635 126.156,12.952 C126.156,13.293335 126.196,13.634665 126.276,13.976 C126.356,14.317335 126.483999,14.621332 126.66,14.888 C126.836001,15.154668 127.062665,15.3706658 127.34,15.536 C127.617335,15.7013342 127.953331,15.784 128.348,15.784 C128.881336,15.784 129.321332,15.6186683 129.668,15.288 C130.014668,14.9573317 130.230666,14.4933363 130.316,13.896 L132.14,13.896 C131.969332,14.9733387 131.561337,15.7973305 130.916,16.368 C130.270663,16.9386695 129.414672,17.224 128.348,17.224 C127.69733,17.224 127.124002,17.1146678 126.628,16.896 C126.131998,16.6773322 125.713335,16.3786686 125.372,16 C125.030665,15.6213314 124.772001,15.1706693 124.596,14.648 C124.419999,14.1253307 124.332,13.560003 124.332,12.952 C124.332,12.3333302 124.417332,11.7520027 124.588,11.208 C124.758668,10.6639973 125.014665,10.192002 125.356,9.792 C125.697335,9.391998 126.121331,9.07733448 126.628,8.848 C127.134669,8.61866552 127.72933,8.504 128.412,8.504 C128.892002,8.504 129.347998,8.56533272 129.78,8.688 C130.212002,8.81066728 130.595998,8.99466544 130.932,9.24 C131.268002,9.48533456 131.542666,9.7946648 131.756,10.168 C131.969334,10.5413352 132.097333,10.9839974 132.14,11.496 L130.316,11.496 Z M132.796,8.728 L134.172,8.728 L134.172,6.248 L135.996,6.248 L135.996,8.728 L137.644,8.728 L137.644,10.088 L135.996,10.088 L135.996,14.504 C135.996,14.696001 136.004,14.8613326 136.02,15 C136.036,15.1386674 136.073333,15.2559995 136.132,15.352 C136.190667,15.4480005 136.278666,15.5199998 136.396,15.568 C136.513334,15.6160002 136.673332,15.64 136.876,15.64 C137.004001,15.64 137.131999,15.6373334 137.26,15.632 C137.388001,15.6266666 137.515999,15.6080002 137.644,15.576 L137.644,16.984 C137.441332,17.0053334 137.244001,17.0266666 137.052,17.048 C136.859999,17.0693334 136.662668,17.08 136.46,17.08 C135.979998,17.08 135.593335,17.0346671 135.3,16.944 C135.006665,16.8533329 134.777334,16.7200009 134.612,16.544 C134.446666,16.3679991 134.334667,16.146668 134.276,15.88 C134.217333,15.613332 134.182667,15.309335 134.172,14.968 L134.172,10.088 L132.796,10.088 L132.796,8.728 Z M15.5229093,14.9605685 C15.2714873,15.3175493 14.9145064,15.5824061 14.4500475,15.7704928 C14.2773148,15.8376666 14.0834704,15.8894864 13.8531602,15.939387 L13.8531602,17.3519564 L12.5116031,17.3519564 L12.5116031,16.0468651 C12.4770565,16.0468651 12.4482678,16.0468651 12.411802,16.0468651 L11.649859,16.0468651 L11.649859,17.3519564 L10.3083019,17.3519564 L10.3083019,16.0468651 L8.26237939,16.0468651 L8.26237939,14.9528915 L8.57521745,14.9528915 C8.78249666,14.9528915 8.92644055,14.933699 8.99937212,14.9010717 C9.07230369,14.8626866 9.12412349,14.8147054 9.15483152,14.743693 C9.18553955,14.6803577 9.19897432,14.5306561 9.19897432,14.3022651 L9.19897432,9.87838949 C9.19897432,9.64616001 9.1836203,9.49453911 9.15483152,9.42928454 C9.12412349,9.36594923 9.07230369,9.31221018 8.99937212,9.27574439 C8.92644055,9.23927861 8.78441591,9.22200534 8.57521745,9.22200534 L8.26237939,9.22200534 L8.26237939,8.12611251 L10.3083019,8.12611251 L10.3083019,6.82294047 L11.649859,6.82294047 L11.649859,8.12611251 L12.5116031,8.12611251 L12.5116031,6.82294047 L13.8531602,6.82294047 L13.8531602,8.22015585 C14.0527624,8.26046014 14.2312528,8.30652219 14.3847929,8.36793825 C14.7782396,8.52915541 15.0814814,8.76138489 15.2945183,9.06078818 C15.5075553,9.36019148 15.6111949,9.69222205 15.6111949,10.0511222 C15.6111949,10.3140597 15.5555366,10.5635624 15.4461392,10.7977111 C15.3309841,11.0318599 15.169767,11.2410583 14.9605685,11.421468 C14.75137,11.6018777 14.46924,11.7477408 14.1237747,11.8648152 C14.4941903,11.9607778 14.7801588,12.0644174 14.9740033,12.1795725 C15.254214,12.3369512 15.4845243,12.5576651 15.6495799,12.8474722 C15.8184741,13.1315214 15.9010019,13.4520365 15.9010019,13.8032596 C15.9048404,14.217818 15.7800891,14.6093454 15.5229093,14.9605685 Z M13.6823467,12.9894968 C13.5748686,12.8282796 13.409813,12.7073668 13.1833412,12.6133234 C12.9626273,12.5288763 12.6286774,12.4885721 12.1795725,12.4885721 L11.1527727,12.4885721 L11.1527727,14.2082218 C11.1566112,14.4519667 11.1681268,14.5959106 11.1834808,14.6362149 C11.2026733,14.689954 11.2372198,14.7264198 11.2775241,14.7494508 C11.3235862,14.7686433 11.4387413,14.7801588 11.6325857,14.7801588 L12.2121998,14.7801588 C12.5499881,14.7801588 12.8301989,14.7494508 13.0509129,14.6861155 C13.2697076,14.6227802 13.4616328,14.4961095 13.6151729,14.2965073 C13.7706323,14.1045822 13.8493216,13.8665949 13.8493216,13.5883034 C13.8493216,13.3503162 13.7936633,13.1545525 13.6823467,12.9894968 Z M12.0298709,11.3312632 C12.4847336,11.3312632 12.8186834,11.2947974 13.0374781,11.2161081 C13.2543536,11.1412572 13.4194092,11.0222636 13.5288066,10.872562 C13.6401232,10.7171026 13.6938622,10.5424506 13.6938622,10.3428484 C13.6938622,10.13365 13.6458809,9.95707881 13.5403221,9.80737717 C13.4366825,9.66151402 13.2869808,9.55403592 13.0873786,9.49261986 C12.8896957,9.4312038 12.5403919,9.40049577 12.0298709,9.40049577 L11.1604497,9.40049577 L11.1604497,11.3312632 L12.0298709,11.3312632 Z M17.9565207,23.5684132 L17.9565207,22.4475701 L19.0812023,22.4475701 L19.0812023,23.5684132 L17.9565207,23.5684132 Z M22.4475701,15.7148345 L22.4475701,14.5901529 L23.5684132,14.5901529 L23.5684132,15.7148345 L22.4475701,15.7148345 Z M8.97826035,22.4475701 L10.0991035,22.4475701 L10.0991035,23.5684132 L8.97826035,23.5684132 L8.97826035,22.4475701 Z M20.2020454,21.3228885 L23.5684132,21.3228885 L23.5684132,22.4475701 L22.4475701,22.4475701 L22.4475701,23.5684132 L21.3228885,23.5684132 L21.3228885,22.4475701 L20.2020454,22.4475701 L20.2020454,21.3228885 Z M23.5684132,19.0812023 L22.4475701,19.0812023 L22.4475701,17.9565207 L23.5684132,17.9565207 L23.5684132,19.0812023 Z M23.5684132,0.00191925189 L23.566494,7.85357874 L21.5839068,7.85357874 C21.7489624,8.21631735 21.9025026,8.59057147 22.0214962,8.9763411 L23.5703325,8.9763411 L23.5703325,10.0971842 L22.3036262,10.0971842 C22.3746386,10.4618421 22.4187813,10.8418539 22.4533279,11.2218658 L23.5703325,11.2218658 L23.5703325,12.3427089 L22.4878744,12.3427089 C22.4801974,12.5672614 22.4686819,12.7898946 22.4494894,13.0067701 L22.4494894,14.5901529 L22.1788749,14.5901529 C21.9811919,15.3847232 21.6952234,16.1524239 21.3248078,16.8644664 L21.3248078,17.9603592 L20.6722621,17.9603592 C20.4016476,18.3576443 20.0945673,18.7242215 19.772133,19.0812023 L22.4475701,19.0812023 L22.4475701,20.2078032 L18.5821968,20.2078032 C18.3806754,20.3690203 18.1695577,20.5302375 17.9565207,20.6741814 L17.9565207,22.4494894 L16.8318391,22.4494894 L16.8318391,21.3401618 C16.4710197,21.5282485 16.0967656,21.6894656 15.710996,21.8353288 L15.710996,23.5780095 L14.5901529,23.5780095 L14.5901529,22.1846326 C13.7859863,22.3803963 12.9472733,22.4993899 12.0836099,22.4993899 C10.5769972,22.4993899 9.14907377,22.1692786 7.85549799,21.5896645 L7.85549799,23.5684132 L-4.54747351e-13,23.5684132 L-4.54747351e-13,15.7148345 L2.33956806,15.7148345 C2.07279204,14.9989535 1.88278611,14.2504453 1.77722725,13.471229 L-4.54747351e-13,13.471229 L-4.54747351e-13,8.9801796 L1.12276236,8.9801796 L1.12276236,12.3465474 L1.68702241,12.3465474 C1.68510316,12.2582618 1.6716684,12.1738147 1.6716684,12.0836099 C1.6716684,10.5808357 2.00177972,9.15099302 2.58139379,7.85741724 L-4.54747351e-13,7.85741724 L-4.54747351e-13,-3.90798505e-14 L7.85549799,-3.90798505e-14 L7.85549799,2.58139379 C8.22015585,2.42017664 8.59249072,2.26855574 8.97826035,2.14764287 L8.97826035,-3.90798505e-14 L12.3446282,-3.90798505e-14 L12.3446282,1.12276236 L11.2237851,1.12276236 L11.2237851,1.71773044 C11.5078343,1.69853792 11.7938029,1.6755069 12.0836099,1.6755069 C12.1718955,1.6755069 12.2563426,1.68702241 12.3446282,1.68894166 L12.3446282,1.12468161 L13.4693098,1.12468161 L13.4693098,1.78106576 C14.248526,1.88662461 14.9970343,2.07471129 15.710996,2.34340656 L15.710996,0.00191925189 L23.5684132,0.00191925189 Z M1.1208431,6.73657414 L3.17252338,6.73273564 C3.40859136,6.34120825 3.66385186,5.96695413 3.94598189,5.60805403 L2.24552471,5.60805403 L2.24552471,2.24168621 L5.61189253,2.24168621 L5.61189253,3.94406264 C5.96887338,3.66193261 6.3431275,3.40475286 6.73465489,3.16868487 L6.73465489,1.12276236 L1.1208431,1.12276236 L1.1208431,6.73657414 Z M6.73465489,22.4475701 L6.73849339,20.9985349 C6.34696601,20.762467 5.97463114,20.503368 5.61573103,20.2231572 L5.61573103,21.3228885 L2.24936322,21.3228885 L2.24936322,17.9565207 L3.4987962,17.9565207 C3.2512127,17.5957013 3.03241799,17.2214472 2.83281579,16.8356776 L1.1208431,16.8356776 L1.1208431,22.4475701 L6.73465489,22.4475701 Z M12.0836099,21.5359255 C17.3001366,21.5359255 21.5340062,17.3039751 21.532087,12.0836099 C21.532087,6.86516402 17.3001366,2.6332136 12.0836099,2.6332136 C6.86324476,2.6332136 2.63129434,6.86516402 2.63129434,12.0836099 C2.63129434,17.3039751 6.86324476,21.5359255 12.0836099,21.5359255 Z M22.4475701,6.73657414 L22.4475701,1.11892385 L16.8318391,1.11892385 L16.8318391,2.83089654 C17.2214472,3.03049874 17.5957013,3.24929345 17.9565207,3.49495769 L17.9565207,2.24552471 L21.3228885,2.24552471 L21.3228885,5.61381178 L20.2250764,5.61381178 C20.5052872,5.97079263 20.7643862,6.34504675 21.0004542,6.73657414 L22.4475701,6.73657414 Z" fill-rule="nonzero"></path>
                    </g>
                </g>
            </g>
        </g>
    </g>
</svg>