<?xml version="1.0" encoding="UTF-8"?>
<svg width="145px" height="20px" viewBox="0 0 145 20" version="1.1" xmlns="http://www.w3.org/2000/svg" xmlns:xlink="http://www.w3.org/1999/xlink">
    <!-- Generator: sketchtool 55.2 (78181) - https://sketchapp.com -->
    <title>A6D0D1DE-37F3-4399-BEA7-CD363A8A12A2</title>
    <desc>Created with sketchtool.</desc>
    <g id="Admin_new" stroke="none" stroke-width="1" fill="none" fill-rule="evenodd">
        <g id="Responsive-elements:-project" transform="translate(-235.000000, -262.000000)" fill="#FFFFFF">
            <g id="Group-5" transform="translate(215.000000, 240.000000)">
                <g id="Rectangle-2">
                    <g id="Logo-2" transform="translate(20.000000, 15.000000)">
                        <g id="Logo">
                            <g transform="translate(-0.000000, 6.000000)">
                                <path d="M37.716,10.36 L40.98,10.36 C41.4600024,10.36 41.8599984,10.2240014 42.18,9.952 C42.5000016,9.67999864 42.66,9.28800256 42.66,8.776 C42.66,8.19999712 42.5160014,7.79466784 42.228,7.56 C41.9399986,7.32533216 41.5240027,7.208 40.98,7.208 L37.716,7.208 L37.716,10.36 Z M35.716,5.576 L41.268,5.576 C42.2920051,5.576 43.1133302,5.81066432 43.732,6.28 C44.3506698,6.74933568 44.66,7.45866192 44.66,8.408 C44.66,8.98400288 44.5186681,9.47733128 44.236,9.888 C43.9533319,10.2986687 43.5506693,10.6159989 43.028,10.84 L43.028,10.872 C43.7320035,11.0213341 44.2653315,11.3546641 44.628,11.872 C44.9906685,12.3893359 45.172,13.0373294 45.172,13.816 C45.172,14.2640022 45.0920008,14.6826647 44.932,15.072 C44.7719992,15.4613353 44.521335,15.7973319 44.18,16.08 C43.838665,16.3626681 43.401336,16.5866658 42.868,16.752 C42.334664,16.9173342 41.7000037,17 40.964,17 L35.716,17 L35.716,5.576 Z M37.716,15.368 L41.252,15.368 C41.860003,15.368 42.3319983,15.2106682 42.668,14.896 C43.0040017,14.5813318 43.172,14.1360029 43.172,13.56 C43.172,12.9946638 43.0040017,12.5600015 42.668,12.256 C42.3319983,11.9519985 41.860003,11.8 41.252,11.8 L37.716,11.8 L37.716,15.368 Z M46.772,5.576 L48.596,5.576 L48.596,7.304 L46.772,7.304 L46.772,5.576 Z M46.772,8.728 L48.596,8.728 L48.596,17 L46.772,17 L46.772,8.728 Z M49.748,8.728 L51.124,8.728 L51.124,6.248 L52.948,6.248 L52.948,8.728 L54.596,8.728 L54.596,10.088 L52.948,10.088 L52.948,14.504 C52.948,14.696001 52.9559999,14.8613326 52.972,15 C52.9880001,15.1386674 53.025333,15.2559995 53.084,15.352 C53.142667,15.4480005 53.2306661,15.5199998 53.348,15.568 C53.4653339,15.6160002 53.6253323,15.64 53.828,15.64 C53.9560006,15.64 54.0839994,15.6373334 54.212,15.632 C54.3400006,15.6266666 54.4679994,15.6080002 54.596,15.576 L54.596,16.984 C54.3933323,17.0053334 54.196001,17.0266666 54.004,17.048 C53.811999,17.0693334 53.6146677,17.08 53.412,17.08 C52.9319976,17.08 52.5453348,17.0346671 52.252,16.944 C51.9586652,16.8533329 51.7293342,16.7200009 51.564,16.544 C51.3986658,16.3679991 51.286667,16.146668 51.228,15.88 C51.169333,15.613332 51.1346667,15.309335 51.124,14.968 L51.124,10.088 L49.748,10.088 L49.748,8.728 Z M61.492,11.496 C61.417333,10.9839974 61.2120017,10.5973346 60.876,10.336 C60.5399983,10.0746654 60.1160026,9.944 59.604,9.944 C59.3693322,9.944 59.118668,9.9839996 58.852,10.064 C58.585332,10.1440004 58.3400011,10.2933322 58.116,10.512 C57.8919989,10.7306678 57.7053341,11.0346647 57.556,11.424 C57.4066659,11.8133353 57.332,12.3226635 57.332,12.952 C57.332,13.293335 57.3719996,13.634665 57.452,13.976 C57.5320004,14.317335 57.6599991,14.621332 57.836,14.888 C58.0120009,15.154668 58.2386653,15.3706658 58.516,15.536 C58.7933347,15.7013342 59.1293314,15.784 59.524,15.784 C60.057336,15.784 60.4973316,15.6186683 60.844,15.288 C61.1906684,14.9573317 61.4066662,14.4933363 61.492,13.896 L63.316,13.896 C63.1453325,14.9733387 62.7373366,15.7973305 62.092,16.368 C61.4466634,16.9386695 60.590672,17.224 59.524,17.224 C58.8733301,17.224 58.3000025,17.1146678 57.804,16.896 C57.3079975,16.6773322 56.889335,16.3786686 56.548,16 C56.206665,15.6213314 55.9480009,15.1706693 55.772,14.648 C55.5959991,14.1253307 55.508,13.560003 55.508,12.952 C55.508,12.3333302 55.5933325,11.7520027 55.764,11.208 C55.9346675,10.6639973 56.190665,10.192002 56.532,9.792 C56.873335,9.391998 57.2973308,9.07733448 57.804,8.848 C58.3106692,8.61866552 58.9053299,8.504 59.588,8.504 C60.0680024,8.504 60.5239978,8.56533272 60.956,8.688 C61.3880022,8.81066728 61.7719983,8.99466544 62.108,9.24 C62.4440017,9.48533456 62.7186656,9.7946648 62.932,10.168 C63.1453344,10.5413352 63.2733331,10.9839974 63.316,11.496 L61.492,11.496 Z M68.596,17.224 C67.9346634,17.224 67.3453359,17.1146678 66.828,16.896 C66.3106641,16.6773322 65.8733351,16.3760019 65.516,15.992 C65.1586649,15.6079981 64.8866676,15.149336 64.7,14.616 C64.5133324,14.082664 64.42,13.4960032 64.42,12.856 C64.42,12.2266635 64.5133324,11.645336 64.7,11.112 C64.8866676,10.578664 65.1586649,10.1200019 65.516,9.736 C65.8733351,9.35199808 66.3106641,9.05066776 66.828,8.832 C67.3453359,8.61333224 67.9346634,8.504 68.596,8.504 C69.2573366,8.504 69.8466641,8.61333224 70.364,8.832 C70.8813359,9.05066776 71.3186649,9.35199808 71.676,9.736 C72.0333351,10.1200019 72.3053324,10.578664 72.492,11.112 C72.6786676,11.645336 72.772,12.2266635 72.772,12.856 C72.772,13.4960032 72.6786676,14.082664 72.492,14.616 C72.3053324,15.149336 72.0333351,15.6079981 71.676,15.992 C71.3186649,16.3760019 70.8813359,16.6773322 70.364,16.896 C69.8466641,17.1146678 69.2573366,17.224 68.596,17.224 Z M68.596,15.784 C69.0013354,15.784 69.3533318,15.6986675 69.652,15.528 C69.9506682,15.3573325 70.195999,15.1333347 70.388,14.856 C70.580001,14.5786653 70.7213329,14.2666684 70.812,13.92 C70.9026671,13.5733316 70.948,13.2186685 70.948,12.856 C70.948,12.5039982 70.9026671,12.1520018 70.812,11.8 C70.7213329,11.4479982 70.580001,11.1360014 70.388,10.864 C70.195999,10.5919986 69.9506682,10.3706675 69.652,10.2 C69.3533318,10.0293325 69.0013354,9.944 68.596,9.944 C68.1906646,9.944 67.8386682,10.0293325 67.54,10.2 C67.2413318,10.3706675 66.996001,10.5919986 66.804,10.864 C66.611999,11.1360014 66.4706671,11.4479982 66.38,11.8 C66.2893329,12.1520018 66.244,12.5039982 66.244,12.856 C66.244,13.2186685 66.2893329,13.5733316 66.38,13.92 C66.4706671,14.2666684 66.611999,14.5786653 66.804,14.856 C66.996001,15.1333347 67.2413318,15.3573325 67.54,15.528 C67.8386682,15.6986675 68.1906646,15.784 68.596,15.784 Z M74.34,5.576 L76.164,5.576 L76.164,7.304 L74.34,7.304 L74.34,5.576 Z M74.34,8.728 L76.164,8.728 L76.164,17 L74.34,17 L74.34,8.728 Z M78.148,8.728 L79.876,8.728 L79.876,9.944 L79.908,9.976 C80.1853347,9.51733104 80.5479978,9.15733464 80.996,8.896 C81.4440022,8.63466536 81.9399973,8.504 82.484,8.504 C83.3906712,8.504 84.1053307,8.73866432 84.628,9.208 C85.1506693,9.67733568 85.412,10.3813286 85.412,11.32 L85.412,17 L83.588,17 L83.588,11.8 C83.5666666,11.1493301 83.4280013,10.6773348 83.172,10.384 C82.9159987,10.0906652 82.5160027,9.944 81.972,9.944 C81.6626651,9.944 81.3853346,9.99999944 81.14,10.112 C80.8946654,10.2240006 80.6866675,10.3786657 80.516,10.576 C80.3453325,10.7733343 80.2120005,11.005332 80.116,11.272 C80.0199995,11.538668 79.972,11.8213318 79.972,12.12 L79.972,17 L78.148,17 L78.148,8.728 Z M88.708,14.344 C88.7613336,14.877336 88.9639982,15.2506656 89.316,15.464 C89.6680018,15.6773344 90.0893309,15.784 90.58,15.784 C90.7506675,15.784 90.9453322,15.7706668 91.164,15.744 C91.3826678,15.7173332 91.587999,15.666667 91.78,15.592 C91.972001,15.517333 92.1293327,15.4080007 92.252,15.264 C92.3746673,15.1199993 92.4306667,14.9306678 92.42,14.696 C92.4093333,14.4613322 92.3240008,14.2693341 92.164,14.12 C92.0039992,13.9706659 91.7986679,13.8506671 91.548,13.76 C91.2973321,13.6693329 91.0120016,13.5920003 90.692,13.528 C90.3719984,13.4639997 90.0466683,13.394667 89.716,13.32 C89.374665,13.245333 89.0466682,13.1546672 88.732,13.048 C88.4173318,12.9413328 88.1346679,12.7973342 87.884,12.616 C87.6333321,12.4346658 87.4333341,12.2026681 87.284,11.92 C87.1346659,11.6373319 87.06,11.2880021 87.06,10.872 C87.06,10.4239978 87.1693322,10.0480015 87.388,9.744 C87.6066678,9.43999848 87.884,9.1946676 88.22,9.008 C88.5560017,8.8213324 88.9293313,8.69066704 89.34,8.616 C89.7506687,8.54133296 90.1426648,8.504 90.516,8.504 C90.9426688,8.504 91.3506647,8.54933288 91.74,8.64 C92.1293353,8.73066712 92.4813318,8.87733232 92.796,9.08 C93.1106682,9.28266768 93.371999,9.54666504 93.58,9.872 C93.788001,10.197335 93.9186664,10.589331 93.972,11.048 L92.068,11.048 C91.9826662,10.6106645 91.7826682,10.3173341 91.468,10.168 C91.1533318,10.0186659 90.7933354,9.944 90.388,9.944 C90.2599994,9.944 90.1080009,9.95466656 89.932,9.976 C89.7559991,9.99733344 89.5906674,10.037333 89.436,10.096 C89.2813326,10.154667 89.1506672,10.2399994 89.044,10.352 C88.9373328,10.4640006 88.884,10.6106658 88.884,10.792 C88.884,11.0160011 88.9613326,11.1973326 89.116,11.336 C89.2706674,11.4746674 89.4733321,11.5893329 89.724,11.68 C89.9746679,11.7706671 90.2599984,11.8479997 90.58,11.912 C90.9000016,11.9760003 91.230665,12.045333 91.572,12.12 C91.9026683,12.194667 92.2279984,12.2853328 92.548,12.392 C92.8680016,12.4986672 93.1533321,12.6426658 93.404,12.824 C93.6546679,13.0053342 93.8573326,13.2346653 94.012,13.512 C94.1666674,13.7893347 94.244,14.1306646 94.244,14.536 C94.244,15.0266691 94.1320011,15.442665 93.908,15.784 C93.6839989,16.125335 93.3933351,16.4026656 93.036,16.616 C92.6786649,16.8293344 92.2813355,16.9839995 91.844,17.08 C91.4066645,17.1760005 90.9746688,17.224 90.548,17.224 C90.0253307,17.224 89.5426689,17.1653339 89.1,17.048 C88.6573311,16.9306661 88.273335,16.7520012 87.948,16.512 C87.622665,16.2719988 87.3666676,15.9733351 87.18,15.616 C86.9933324,15.2586649 86.8946667,14.8346691 86.884,14.344 L88.708,14.344 Z M100.34,5.576 L105.076,5.576 C105.950671,5.576 106.707997,5.72533184 107.348,6.024 C107.988003,6.32266816 108.510665,6.73066408 108.916,7.248 C109.321335,7.76533592 109.622666,8.3706632 109.82,9.064 C110.017334,9.7573368 110.116,10.4986627 110.116,11.288 C110.116,12.0773373 110.017334,12.8186632 109.82,13.512 C109.622666,14.2053368 109.321335,14.8106641 108.916,15.328 C108.510665,15.8453359 107.988003,16.2533318 107.348,16.552 C106.707997,16.8506682 105.950671,17 105.076,17 L100.34,17 L100.34,5.576 Z M102.34,15.368 L104.308,15.368 C105.086671,15.368 105.723998,15.264001 106.22,15.056 C106.716002,14.847999 107.105332,14.5600018 107.388,14.192 C107.670668,13.8239982 107.862666,13.3920025 107.964,12.896 C108.065334,12.3999975 108.116,11.8640029 108.116,11.288 C108.116,10.7119971 108.065334,10.1760025 107.964,9.68 C107.862666,9.18399752 107.670668,8.75200184 107.388,8.384 C107.105332,8.01599816 106.716002,7.72800104 106.22,7.52 C105.723998,7.31199896 105.086671,7.208 104.308,7.208 L102.34,7.208 L102.34,15.368 Z M111.684,5.576 L113.508,5.576 L113.508,7.304 L111.684,7.304 L111.684,5.576 Z M111.684,8.728 L113.508,8.728 L113.508,17 L111.684,17 L111.684,8.728 Z M115.492,8.728 L117.204,8.728 L117.204,10.328 L117.236,10.328 C117.289334,10.1039989 117.393333,9.8853344 117.548,9.672 C117.702667,9.4586656 117.889332,9.26400088 118.108,9.088 C118.326668,8.91199912 118.569332,8.7706672 118.836,8.664 C119.102668,8.5573328 119.374665,8.504 119.652,8.504 C119.865334,8.504 120.012,8.50933328 120.092,8.52 C120.172,8.53066672 120.254666,8.54133328 120.34,8.552 L120.34,10.312 C120.211999,10.2906666 120.081334,10.2720001 119.948,10.256 C119.814666,10.2399999 119.684001,10.232 119.556,10.232 C119.246665,10.232 118.956001,10.2933327 118.684,10.416 C118.411999,10.5386673 118.174668,10.7199988 117.972,10.96 C117.769332,11.2000012 117.609334,11.4959982 117.492,11.848 C117.374666,12.2000018 117.316,12.605331 117.316,13.064 L117.316,17 L115.492,17 L115.492,8.728 Z M126.516,12.136 C126.494667,11.8479986 126.433334,11.570668 126.332,11.304 C126.230666,11.037332 126.092001,10.8053343 125.916,10.608 C125.739999,10.4106657 125.526668,10.2506673 125.276,10.128 C125.025332,10.0053327 124.745335,9.944 124.436,9.944 C124.115998,9.944 123.825335,9.99999944 123.564,10.112 C123.302665,10.2240006 123.078668,10.3786657 122.892,10.576 C122.705332,10.7733343 122.556001,11.005332 122.444,11.272 C122.331999,11.538668 122.270667,11.8266651 122.26,12.136 L126.516,12.136 Z M122.26,13.336 C122.26,13.6560016 122.305333,13.9653318 122.396,14.264 C122.486667,14.5626682 122.622666,14.8239989 122.804,15.048 C122.985334,15.2720011 123.214665,15.450666 123.492,15.584 C123.769335,15.717334 124.099998,15.784 124.484,15.784 C125.017336,15.784 125.446665,15.6693345 125.772,15.44 C126.097335,15.2106655 126.339999,14.866669 126.5,14.408 L128.228,14.408 C128.132,14.8560022 127.966668,15.2559982 127.732,15.608 C127.497332,15.9600018 127.214668,16.2559988 126.884,16.496 C126.553332,16.7360012 126.182669,16.9173327 125.772,17.04 C125.361331,17.1626673 124.932002,17.224 124.484,17.224 C123.83333,17.224 123.257336,17.1173344 122.756,16.904 C122.254664,16.6906656 121.830668,16.3920019 121.484,16.008 C121.137332,15.6239981 120.876001,15.165336 120.7,14.632 C120.523999,14.098664 120.436,13.5120032 120.436,12.872 C120.436,12.2853304 120.529332,11.7280026 120.716,11.2 C120.902668,10.6719974 121.169332,10.208002 121.516,9.808 C121.862668,9.407998 122.281331,9.09066784 122.772,8.856 C123.262669,8.62133216 123.81733,8.504 124.436,8.504 C125.08667,8.504 125.670664,8.63999864 126.188,8.912 C126.705336,9.18400136 127.134665,9.54399776 127.476,9.992 C127.817335,10.4400022 128.065333,10.9546638 128.22,11.536 C128.374667,12.1173362 128.414667,12.7173302 128.34,13.336 L122.26,13.336 Z M135.316,11.496 C135.241333,10.9839974 135.036002,10.5973346 134.7,10.336 C134.363998,10.0746654 133.940003,9.944 133.428,9.944 C133.193332,9.944 132.942668,9.9839996 132.676,10.064 C132.409332,10.1440004 132.164001,10.2933322 131.94,10.512 C131.715999,10.7306678 131.529334,11.0346647 131.38,11.424 C131.230666,11.8133353 131.156,12.3226635 131.156,12.952 C131.156,13.293335 131.196,13.634665 131.276,13.976 C131.356,14.317335 131.483999,14.621332 131.66,14.888 C131.836001,15.154668 132.062665,15.3706658 132.34,15.536 C132.617335,15.7013342 132.953331,15.784 133.348,15.784 C133.881336,15.784 134.321332,15.6186683 134.668,15.288 C135.014668,14.9573317 135.230666,14.4933363 135.316,13.896 L137.14,13.896 C136.969332,14.9733387 136.561337,15.7973305 135.916,16.368 C135.270663,16.9386695 134.414672,17.224 133.348,17.224 C132.69733,17.224 132.124002,17.1146678 131.628,16.896 C131.131998,16.6773322 130.713335,16.3786686 130.372,16 C130.030665,15.6213314 129.772001,15.1706693 129.596,14.648 C129.419999,14.1253307 129.332,13.560003 129.332,12.952 C129.332,12.3333302 129.417332,11.7520027 129.588,11.208 C129.758668,10.6639973 130.014665,10.192002 130.356,9.792 C130.697335,9.391998 131.121331,9.07733448 131.628,8.848 C132.134669,8.61866552 132.72933,8.504 133.412,8.504 C133.892002,8.504 134.347998,8.56533272 134.78,8.688 C135.212002,8.81066728 135.595998,8.99466544 135.932,9.24 C136.268002,9.48533456 136.542666,9.7946648 136.756,10.168 C136.969334,10.5413352 137.097333,10.9839974 137.14,11.496 L135.316,11.496 Z M137.796,8.728 L139.172,8.728 L139.172,6.248 L140.996,6.248 L140.996,8.728 L142.644,8.728 L142.644,10.088 L140.996,10.088 L140.996,14.504 C140.996,14.696001 141.004,14.8613326 141.02,15 C141.036,15.1386674 141.073333,15.2559995 141.132,15.352 C141.190667,15.4480005 141.278666,15.5199998 141.396,15.568 C141.513334,15.6160002 141.673332,15.64 141.876,15.64 C142.004001,15.64 142.131999,15.6373334 142.26,15.632 C142.388001,15.6266666 142.515999,15.6080002 142.644,15.576 L142.644,16.984 C142.441332,17.0053334 142.244001,17.0266666 142.052,17.048 C141.859999,17.0693334 141.662668,17.08 141.46,17.08 C140.979998,17.08 140.593335,17.0346671 140.3,16.944 C140.006665,16.8533329 139.777334,16.7200009 139.612,16.544 C139.446666,16.3679991 139.334667,16.146668 139.276,15.88 C139.217333,15.613332 139.182667,15.309335 139.172,14.968 L139.172,10.088 L137.796,10.088 L137.796,8.728 Z" id="BitcoinsDirect" fill-rule="nonzero"></path>
                                <g id="Group" transform="translate(0.000000, 1.000000)">
                                    <path d="M0,7 L7.01026618,1.24344979e-14 L14,7 L14,12.9643867 L7,5.96438669 L0,12.9643867 L0,7 Z M23.0102662,8.96438669 L23.0092958,12.9643867 L19,12.9643867 L23.0102662,8.96438669 Z M16,6.98219335 L23,9.76996262e-15 L23,5.96438669 L16,12.9643867 L16,6.98219335 Z M0,15 L23,15 L23,20 L0,20 L0,15 Z" id="Combined-Shape" fill-rule="nonzero"></path>
                                    <polygon id="Triangle" fill-opacity="0.35" points="7.01026618 8.96438669 11 12.9643867 3 12.9643867"></polygon>
                                </g>
                            </g>
                        </g>
                    </g>
                </g>
            </g>
        </g>
    </g>
</svg>