<?xml version="1.0" encoding="UTF-8"?>
<svg width="24px" height="20px" viewBox="0 0 24 20" version="1.1" xmlns="http://www.w3.org/2000/svg" xmlns:xlink="http://www.w3.org/1999/xlink">
    <!-- Generator: sketchtool 55.2 (78181) - https://sketchapp.com -->
    <title>F1DD46CE-3678-4A22-9780-BECCCCC29CAF</title>
    <desc>Created with sketchtool.</desc>
    <g id="Admin_new" stroke="none" stroke-width="1" fill="none" fill-rule="evenodd">
        <g id="Responsive-elements:-project" transform="translate(-721.000000, -262.000000)" fill="#FFFFFF">
            <g id="Group-5" transform="translate(699.000000, 240.000000)">
                <g id="Group-9" transform="translate(22.000000, 22.000000)">
                    <g id="Logo-3">
                        <g id="Logo-4">
                            <g id="Icon_BD">
                                <g id="Logo" transform="translate(0.000000, -1.000000)">
                                    <g id="Group" transform="translate(0.000000, 1.000000)">
                                        <path d="M0,7 L7.01026618,1.24344979e-14 L14,7 L14,12.9643867 L7,5.96438669 L0,12.9643867 L0,7 Z M23.0102662,8.96438669 L23.0092958,12.9643867 L19,12.9643867 L23.0102662,8.96438669 Z M16,6.98219335 L23,9.76996262e-15 L23,5.96438669 L16,12.9643867 L16,6.98219335 Z M0,15 L23,15 L23,20 L0,20 L0,15 Z" id="Combined-Shape" fill-rule="nonzero"></path>
                                        <polygon id="Triangle" fill-opacity="0.35" points="7.01026618 8.96438669 11 12.9643867 3 12.9643867"></polygon>
                                    </g>
                                </g>
                            </g>
                        </g>
                    </g>
                </g>
            </g>
        </g>
    </g>
</svg>