<?xml version="1.0" encoding="UTF-8"?>
<svg width="497px" height="359px" viewBox="0 0 497 359" version="1.1" xmlns="http://www.w3.org/2000/svg" xmlns:xlink="http://www.w3.org/1999/xlink">
    <!-- Generator: sketchtool 55.1 (78136) - https://sketchapp.com -->
    <title>56E3F528-A976-4C73-8986-FC206DF905B9</title>
    <desc>Created with sketchtool.</desc>
    <defs>
        <linearGradient x1="50.3876381%" y1="82.5253258%" x2="50%" y2="17.6041778%" id="linearGradient-1">
            <stop stop-color="#FFFFFF" stop-opacity="0.4" offset="1%"></stop>
            <stop stop-color="#FFFFFF" stop-opacity="0" offset="100%"></stop>
        </linearGradient>
        <linearGradient x1="14.1920621%" y1="69.9475521%" x2="77.5364234%" y2="33.295072%" id="linearGradient-2">
            <stop stop-color="#68E1FD" stop-opacity="0" offset="0%"></stop>
            <stop stop-color="#66DAF6" stop-opacity="0.04" offset="2%"></stop>
            <stop stop-color="#58A1BC" stop-opacity="0.39" offset="18%"></stop>
            <stop stop-color="#4D758F" stop-opacity="0.66" offset="35%"></stop>
            <stop stop-color="#45566F" stop-opacity="0.85" offset="53%"></stop>
            <stop stop-color="#40435C" stop-opacity="0.96" offset="73%"></stop>
            <stop stop-color="#3F3D56" offset="99%"></stop>
        </linearGradient>
        <linearGradient x1="46.5504011%" y1="49.9700345%" x2="-19.3338754%" y2="54.3520071%" id="linearGradient-3">
            <stop stop-color="#000000" stop-opacity="0" offset="0%"></stop>
            <stop stop-color="#000000" stop-opacity="0.8" offset="91%"></stop>
            <stop stop-color="#000000" offset="100%"></stop>
        </linearGradient>
        <linearGradient x1="0.0100852758%" y1="49.9878269%" x2="100%" y2="49.9878269%" id="linearGradient-4">
            <stop stop-color="#ECC4D7" offset="0%"></stop>
            <stop stop-color="#EFD4D1" offset="42%"></stop>
            <stop stop-color="#F2EAC9" offset="100%"></stop>
        </linearGradient>
        <linearGradient x1="47.1732233%" y1="957.719204%" x2="123.43207%" y2="1341.42012%" id="linearGradient-5">
            <stop stop-color="#ECC4D7" offset="0%"></stop>
            <stop stop-color="#EFD4D1" offset="42%"></stop>
            <stop stop-color="#F2EAC9" offset="100%"></stop>
        </linearGradient>
        <linearGradient x1="0.00334245312%" y1="452.553029%" x2="99.9011846%" y2="452.553029%" id="linearGradient-6">
            <stop stop-color="#ECC4D7" offset="0%"></stop>
            <stop stop-color="#EFD4D1" offset="42%"></stop>
            <stop stop-color="#F2EAC9" offset="100%"></stop>
        </linearGradient>
        <linearGradient x1="48.4684793%" y1="87.0615041%" x2="52.1951009%" y2="29.2170764%" id="linearGradient-7">
            <stop stop-color="#000000" stop-opacity="0" offset="0%"></stop>
            <stop stop-color="#000000" stop-opacity="0.8" offset="91%"></stop>
            <stop stop-color="#000000" offset="100%"></stop>
        </linearGradient>
        <linearGradient x1="-0.28247429%" y1="1756.66067%" x2="99.7120443%" y2="1756.66067%" id="linearGradient-8">
            <stop stop-color="#ECC4D7" offset="0%"></stop>
            <stop stop-color="#EFD4D1" offset="42%"></stop>
            <stop stop-color="#F2EAC9" offset="100%"></stop>
        </linearGradient>
        <linearGradient x1="-0.607106017%" y1="5961.30137%" x2="99.4400347%" y2="5961.30137%" id="linearGradient-9">
            <stop stop-color="#ECC4D7" offset="0%"></stop>
            <stop stop-color="#EFD4D1" offset="42%"></stop>
            <stop stop-color="#F2EAC9" offset="100%"></stop>
        </linearGradient>
        <linearGradient x1="-0.121066517%" y1="3208.40373%" x2="99.8798768%" y2="3208.40373%" id="linearGradient-10">
            <stop stop-color="#ECC4D7" offset="0%"></stop>
            <stop stop-color="#EFD4D1" offset="42%"></stop>
            <stop stop-color="#F2EAC9" offset="100%"></stop>
        </linearGradient>
        <linearGradient x1="72.5146199%" y1="63.4754991%" x2="33.5991494%" y2="32.168784%" id="linearGradient-11">
            <stop stop-color="#00272E" offset="36%"></stop>
            <stop stop-color="#69B9EB" stop-opacity="0" offset="100%"></stop>
        </linearGradient>
        <linearGradient x1="85.1230425%" y1="736.086054%" x2="26.8456376%" y2="688.494271%" id="linearGradient-12">
            <stop stop-color="#00272E" offset="36%"></stop>
            <stop stop-color="#69B9EB" stop-opacity="0" offset="100%"></stop>
        </linearGradient>
        <linearGradient x1="42.6340968%" y1="2618.90266%" x2="100.694691%" y2="2934.39496%" id="linearGradient-13">
            <stop stop-color="#ECC4D7" offset="0%"></stop>
            <stop stop-color="#EFD4D1" offset="42%"></stop>
            <stop stop-color="#F2EAC9" offset="100%"></stop>
        </linearGradient>
        <linearGradient x1="50.148819%" y1="138.01856%" x2="49.8428749%" y2="37.8759625%" id="linearGradient-14">
            <stop stop-color="#FFFFFF" stop-opacity="0.4" offset="1%"></stop>
            <stop stop-color="#FFFFFF" stop-opacity="0" offset="100%"></stop>
        </linearGradient>
        <linearGradient x1="-0.212314225%" y1="49.9750125%" x2="100%" y2="49.9750125%" id="linearGradient-15">
            <stop stop-color="#68E1FD" offset="0%"></stop>
            <stop stop-color="#69B9EB" offset="100%"></stop>
        </linearGradient>
    </defs>
    <g id="Pages" stroke="none" stroke-width="1" fill="none" fill-rule="evenodd">
        <g id="Homepage" transform="translate(-718.000000, -76.000000)" fill-rule="nonzero">
            <g id="innovation" transform="translate(718.000000, 76.000000)">
                <path d="M268.709242,43.214822 C223.561684,50.4484577 177.606088,50.508738 132.096722,54.8850876 C108.555108,57.1516267 -23.3961242,124.056729 3.63090357,266.336315 C13.550462,318.750033 66.103016,361.235587 119.409336,358.908768 C164.701617,356.931574 169.688532,327.098855 250.401778,325.404978 C311.691985,324.121008 358.944058,367.83628 429.94277,342.602947 C461.407971,331.420952 486.475207,303.203745 494.507336,270.809113 C502.539465,238.414481 490.88926,200.992472 463.470274,181.883618 C449.257265,171.943397 431.100554,166.554338 420.975971,152.448749 C401.130824,124.804205 441.321619,82.0473896 423.442293,53.1007908 C387.906757,-4.48497736 306.602558,37.1626801 268.709242,43.214822 Z" id="Path" fill="#2EAC82" opacity="0.18"></path>
                <path d="M87.2479276,270.01876 C87.2479276,270.01876 39.5105105,281.897128 80.8483244,299.005118 C122.186138,316.113108 314.077635,335.002551 384.328373,296.293686 C384.328373,296.293686 432.512554,294.953067 433.834737,288.195622 C435.156919,281.438178 428.111318,275.973041 428.111318,275.973041 L403.678116,275.145722 C403.678116,275.145722 399.180282,284.886346 376.666961,267.192591 C354.15364,249.498835 87.2479276,270.01876 87.2479276,270.01876 Z" id="Path" fill="#000405" opacity="0.05"></path>
                <path d="M429,281.046829 C426.240844,284.562004 422.125987,286.727063 417.685552,287 C411.525658,287 414.501003,281.193171 416.523308,281.193171 C417.097209,281.205971 417.670622,281.150962 418.231807,281.029268 L420.7655,278.804878 L423.270136,276.55122 L423.926804,275.122927 C423.926804,275.122927 427.413537,275.930732 428.035337,275 L428.488613,278.945366 L428.488613,279.712195 C428.766049,280.107614 428.94176,280.56619 429,281.046829 L429,281.046829 Z" id="Path" fill="#3F3D56"></path>
                <path d="M379,270.503 C379,291.216657 314.080753,308 234.006036,308 C153.931319,308 89,291.198656 89,270.503 C89.0539718,268.025846 89.8995275,265.630047 91.4142524,263.662453 C103.835581,246.219058 162.948551,233 234.006036,233 C305.06352,233 364.164419,246.201056 376.585748,263.662453 C378.100472,265.630047 378.946028,268.025846 379,270.503 Z" id="Path" fill="#2EAC82"></path>
                <path d="M375,263.50597 C362.567782,280.860344 303.501175,294 232.503016,294 C161.504857,294 102.432218,280.866314 90,263.50597 C102.408089,246.151595 161.486761,233 232.503016,233 C303.519271,233 362.585878,246.151595 375,263.50597 Z" id="Path" fill="#000405" opacity="0.05"></path>
                <ellipse id="Oval" fill="#000405" opacity="0.05" cx="232" cy="259.5" rx="118" ry="21.5"></ellipse>
                <path d="M335.29595,256.195295 C335.29595,256.195295 343.59521,274.295952 236.857671,275 L230.676986,275 C202.224104,275 181.641939,273.507659 166.751558,271.389497 L166.709307,271.389497 C128.593069,265.973742 127.886877,256.243435 127.886877,256.243435 L59,1.33588621 L169.534073,0.896608315 L400,0 L335.29595,256.195295 Z" id="Path" fill="url(#linearGradient-1)"></path>
                <path d="M413,280.54957 C413,281.179943 406.777264,285 400.671938,285 C394.566611,285 397.4549,278.696275 399.533059,278.746705 L401.605348,278.746705 L402.779449,278.116332 L407.241034,275.670487 L407.904401,274.132378 C407.904401,274.132378 411.426704,275.002292 412.054849,274 L412.512748,278.318052 L412.512748,279.099713 C412.79021,279.52906 412.958193,280.028907 413,280.54957 Z" id="Path" fill="#3F3D56"></path>
                <path d="M412.671007,278.840659 C412.893038,279.235028 413.006054,279.675146 412.99975,280.120879 C412.99975,280.67033 406.777111,284 400.67188,284 C394.566649,284 397.454893,278.505495 399.53302,278.549451 L401.605276,278.549451 L402.779359,278 L412.57708,278.153846 L412.671007,278.840659 Z" id="Path" fill="#3F3D56"></path>
                <path d="M402.304648,282.697098 C400.813132,283.100967 399.247945,283.100967 397.756429,282.697098 C396.394301,281.920084 395.961694,281.332734 396.002617,280.733148 C396.043539,280.133561 396.873677,278.395985 400.135767,279.215827 C403.397858,280.03567 404,281.877256 404,281.877256 L402.304648,282.697098 Z" id="Path" fill="#3F3D56"></path>
                <path d="M429,280.188571 C426.240844,283.620051 422.125987,285.733561 417.685552,286 C411.525658,286 414.501003,280.331429 416.523308,280.331429 C417.097209,280.343924 417.670622,280.290225 418.231807,280.171429 L420.7655,278 L428.546725,278.137143 L428.546725,278.885714 C428.808255,279.274922 428.964284,279.7234 429,280.188571 L429,280.188571 Z" id="Path" fill="#3F3D56"></path>
                <path d="M420.235179,285.696873 C418.760868,286.101042 417.213537,286.101042 415.739226,285.696873 C414.385232,284.91932 413.957046,284.337685 414.003336,283.731561 C414.049627,283.125436 414.859709,281.392778 418.094249,282.219311 C421.328789,283.045844 422,284.790748 422,284.790748 L420.235179,285.696873 Z" id="Path" fill="#3F3D56"></path>
                <path d="M400,211.332478 L406.349108,274.636223 C406.349108,274.636223 410.599884,276.177711 412.493794,274.636223 L415.12723,224.776665 L422.582622,275.077512 C422.582622,275.077512 426.063809,277.33836 428.21024,274.781305 L431,211 C431,211 408.754073,215.600282 400,211.332478 Z" id="Path" fill="#2EAC82"></path>
                <path d="M400,210.344576 L406.349108,273.661945 C406.349108,273.661945 410.599884,275.197424 412.493794,273.661945 L415.12723,223.801179 L422.582622,274.079063 C422.582622,274.079063 426.063809,276.339966 428.21024,273.776803 L431,210 C431,210 408.754073,214.612484 400,210.344576 Z" id="Path" fill="url(#linearGradient-2)"></path>
                <path d="M422.340548,151 C423.178824,151.642119 424.077847,152.203788 425.025275,152.677295 C427.273213,153.944181 429.719744,154.835457 432.264989,155.314737 C435.613356,155.670347 437.019067,161.834257 437.465516,164.732481 C437.911965,167.630704 440.98281,182.038844 440.98281,182.038844 C441.208789,184.971023 439.183942,187.612274 436.252864,188.208681 C430.823079,189.945244 430.96184,190.804635 430.96184,190.804635 L431.070436,209.302292 C431.070436,209.302292 406.606238,215.140226 400,209.640122 L400.959262,184.611091 L404.579119,157.40691 L414.943975,152.665441 L422.340548,151 Z" id="Path" fill="#2EAC82"></path>
                <path d="M422.340548,151 C423.178824,151.642119 424.077847,152.203788 425.025275,152.677295 C427.273213,153.944181 429.719744,154.835457 432.264989,155.314737 C435.613356,155.670347 437.019067,161.834257 437.465516,164.732481 C437.911965,167.630704 440.98281,182.038844 440.98281,182.038844 C441.208789,184.971023 439.183942,187.612274 436.252864,188.208681 C430.823079,189.945244 430.96184,190.804635 430.96184,190.804635 L431.070436,209.302292 C431.070436,209.302292 406.606238,215.140226 400,209.640122 L400.959262,184.611091 L404.579119,157.40691 L414.943975,152.665441 L422.340548,151 Z" id="Path" fill="url(#linearGradient-3)"></path>
                <path d="M423.17484,150 C421.595375,153.440834 417.563421,154.932771 414.168437,153.332624 L413.906176,153.20295 C413.906176,153.20295 408.296365,163.071147 416.324089,161.904081 C420.577823,161.25571 423.360341,154.441337 424,151.212453 L423.17484,150 Z" id="Path" fill="#3F3D56"></path>
                <path d="M424.017109,181.464945 C425.989742,180.992931 427.934097,180.405655 429.840538,179.706027 C430.504349,179.250923 428.88103,167 428.88103,167 C428.88103,167 428.277566,176.840098 415.912584,181.551046 C409.877942,183.851169 420.052349,187 420.052349,187 L424.017109,181.464945 Z" id="Path" fill="#000405" opacity="0.05"></path>
                <path d="M423.029653,190.750536 C423.029653,190.750536 429.683631,193.211118 431,192.344801 L431,207 C431,207 414.001403,195.972504 414.001403,194.251902 C414.001403,192.5313 401,192.134238 401,192.134238 L401,188.121504 L420.739531,185.787261 C420.739531,185.787261 425.007213,182.081348 423.029653,190.750536 Z" id="Path" fill="#000405" opacity="0.05"></path>
                <path d="M425,182 C425,182 425,187.985821 423.86,189.69178 C422.72,191.397738 422,185.46579 422,185.46579 L425,182 Z" id="Path" fill="#033B4B"></path>
                <path d="M423,142 C423,142 422.926478,143.339898 422.828449,145.096653 C422.742673,146.567563 422.638517,148.330273 422.564995,149.801184 C422.426695,152.298929 421.318779,154.652704 419.464817,156.387526 C418.387794,157.459335 417.100184,158.309882 415.678435,158.888669 C414.631298,159.246324 413.483712,158.713904 413.111292,157.697649 C412.98199,157.331118 412.964963,156.935981 413.062277,156.560224 C413.446971,155.442897 413.681729,154.281992 413.760736,153.106265 C413.785243,152.66591 413.785243,152.224588 413.760736,151.784233 C413.740503,150.968861 413.639973,150.157246 413.460521,149.360506 C412.296423,146.513967 421.743999,142.512139 422.86521,142.041686 L423,142 Z" id="Path" fill="url(#linearGradient-4)"></path>
                <path d="M423,142 C422.472796,143.439484 422.357068,146.299086 420.190388,149.100592 C419.206703,150.391608 416.557824,153.302851 413.413888,154 C413.446028,153.522869 413.446028,153.044103 413.413888,152.566971 C413.392657,151.683142 413.287163,150.803386 413.098851,149.939753 C411.909428,146.880043 421.823435,142.509952 423,142 Z" id="Path" fill="url(#linearGradient-5)"></path>
                <path d="M415.155572,124.007389 C412.602262,124.142301 410.204443,125.33993 408.489691,127.336768 C406.774939,129.333607 405.883742,131.966056 406.012184,134.654917 L406.012184,134.654917 C406.018986,134.910676 406.040135,135.165789 406.07552,135.41892 C406.381162,139.540033 407.393628,143.568673 409.063818,147.309468 C412.219093,152.960662 420.176374,148.316011 421.437332,145.981559 C422.698291,143.647106 427.540601,133.139039 425.508097,130.161854 C424.183803,128.209403 420.337592,123.795166 415.155572,124.007389 Z" id="Path" fill="url(#linearGradient-6)"></path>
                <path d="M405.001656,120.904017 L406.658113,121.770001 C404.63409,121.716516 402.70493,122.623176 401.460679,124.212671 C399.912755,125.762754 399.030476,127.850594 399,130.035662 L401.904801,128.662033 C401.904801,128.662033 401.694743,132.203607 407.168253,132.478332 C412.641763,132.753058 418.451366,132.962088 418.451366,132.962088 L416.584851,130.411917 C416.584851,130.411917 420.041805,131.785546 420.593957,133.027784 C421.12828,135.027057 421.511456,137.063328 421.740273,139.119528 C421.740273,139.119528 423.120654,135.643651 423.6488,136.402132 C424.176945,137.160614 423.048634,140.325933 422.334437,141.042609 C421.62024,141.759284 421.734272,143.8257 421.674255,143.992924 C421.614238,144.160148 425.071192,141.317334 425.239238,140.34385 C425.407285,139.370365 428.840232,129.444405 426.619619,127.377989 L428,127.270488 C427.189384,126.73241 426.269121,126.379566 425.305257,126.23728 C425.305257,126.23728 416.284768,114.51963 405.001656,120.904017 Z" id="Path" fill="#3F3D56"></path>
                <path d="M406,156 C406,156 401.616259,157.938885 401.039614,166.632595 C400.566856,172.240124 399.540764,177.786104 397.976576,183.18817 C394.661577,183.52569 391.331843,183.694774 388,183.694782 L392.867379,187.447462 C394.689192,188.856612 396.812627,189.816194 399.067861,190.249464 L402.422322,191 L406,156 Z" id="Path" fill="#2EAC82"></path>
                <path d="M420.995433,186.263376 C421.001522,186.341024 421.001522,186.419017 420.995433,186.496666 C420.8761,187.387417 420.081671,188.039962 419.167546,187.998094 L386.874881,186.203558 C386.59315,186.192471 386.318737,186.112267 386.076704,185.970268 C385.654336,185.794926 385.320888,185.4611 385.150575,185.043091 L378.101025,165.303195 C377.908165,164.769557 377.994722,164.176949 378.332558,163.718022 C378.674449,163.259075 379.22187,162.991474 379.80096,163 L402.216943,163.383042 C402.993887,163.400397 403.667369,163.91574 403.874227,164.651181 L408.78515,181.968453 C408.97332,182.627173 409.539471,183.114982 410.22918,183.212665 L419.405171,184.546603 C420.30721,184.629993 420.996277,185.373878 420.995433,186.263376 Z" id="Path" fill="#2EAC82"></path>
                <path d="M420.995433,186.263376 C421.001522,186.341024 421.001522,186.419017 420.995433,186.496666 C420.8761,187.387417 420.081671,188.039962 419.167546,187.998094 L386.874881,186.203558 C386.59315,186.192471 386.318737,186.112267 386.076704,185.970268 C385.654336,185.794926 385.320888,185.4611 385.150575,185.043091 L378.101025,165.303195 C377.908165,164.769557 377.994722,164.176949 378.332558,163.718022 C378.674449,163.259075 379.22187,162.991474 379.80096,163 L402.216943,163.383042 C402.993887,163.400397 403.667369,163.91574 403.874227,164.651181 L408.78515,181.968453 C408.97332,182.627173 409.539471,183.114982 410.22918,183.212665 L419.405171,184.546603 C420.30721,184.629993 420.996277,185.373878 420.995433,186.263376 Z" id="Path" fill="url(#linearGradient-7)"></path>
                <path d="M424.58427,185.867071 C424.062327,186.04431 423.493923,186.04431 422.971981,185.867071 C422.438147,185.760457 421.920822,185.586969 421.432977,185.350958 C420.547439,184.882304 418.617578,183.16193 416.809859,183.654313 C415.210707,184.027117 413.554682,184.111569 411.924133,183.903471 C411.258453,183.755163 411.258453,183.583125 410.611095,183.654313 C409.963736,183.725501 410.000379,182.894975 410.000379,182.894975 C411.954626,181.672743 414.062606,180.699767 416.272429,180 C418.493205,180.052722 420.686884,180.48653 422.752123,181.281382 L424.156769,182.06445 L424.242269,182.105976 L424.999557,182.533103 C424.999557,182.533103 425.030093,185.540793 424.58427,185.867071 Z" id="Path" fill="url(#linearGradient-8)"></path>
                <path d="M418,181.815068 L414.356492,180 C414.356492,180 413.75173,180.89726 414.117574,181.369863 C414.311787,181.602757 414.534772,181.814213 414.782066,182 C415.828975,181.733489 416.925019,181.6705 418,181.815068 L418,181.815068 Z" id="Path" fill="url(#linearGradient-9)"></path>
                <path d="M395,187 C396.106974,188.785257 397.674782,190.073089 399.455248,190.659637 C402.663511,191.896594 408.420223,189.364125 408.420223,189.364125 C408.420223,189.364125 410.302808,188.332108 409.957768,188.097891 C409.612729,187.863674 400.375353,187.424518 400.375353,187.424518 L395,187 Z" id="Path" fill="url(#linearGradient-10)"></path>
                <path d="M402,278.673321 C402,278.673321 404.258373,279.653358 404.392344,281.172414 L404.570973,282 C404.570973,282 413.036683,280.611615 414,278.978221 L413.591707,276.441016 C412.613505,277.366712 411.158086,277.814122 409.712919,277.633394 C407.709729,277.116152 408.092504,276 408.092504,276 L402,278.673321 Z" id="Path" fill="#2EAC82"></path>
                <path d="M418.713647,280.839506 L418,280.490922 L423.32774,276 C423.32774,276 424.478188,278.625999 428.526286,276.511256 L429,279.137255 C426.676404,281.454491 423.732123,283.134787 420.479306,284 C420.43864,282.74567 419.78704,281.57932 418.713647,280.839506 L418.713647,280.839506 Z" id="Path" fill="#2EAC82"></path>
                <path d="M402,278.673321 C402,278.673321 404.258373,279.653358 404.392344,281.172414 L404.570973,282 C404.570973,282 413.036683,280.611615 414,278.978221 L413.591707,276.441016 C412.613505,277.366712 411.158086,277.814122 409.712919,277.633394 C407.709729,277.116152 408.092504,276 408.092504,276 L402,278.673321 Z" id="Path" fill="url(#linearGradient-11)" opacity="0.61"></path>
                <path d="M418.713647,280.839506 L418,280.490922 L423.32774,276 C423.32774,276 424.478188,278.625999 428.526286,276.511256 L429,279.137255 C426.676404,281.454491 423.732123,283.134787 420.479306,284 C420.43864,282.74567 419.78704,281.57932 418.713647,280.839506 L418.713647,280.839506 Z" id="Path" fill="url(#linearGradient-12)" opacity="0.61"></path>
                <path d="M410,186 L397.961165,185.377303 L386.686796,184.789853 C386.326349,184.598036 386.047031,184.287988 385.898252,183.914553 L385.218058,181.987717 L382.744078,175.079306 L379,164.58745 C379.054383,164.376643 379.148261,164.177475 379.276893,164 L390.36466,164.140988 L402.084466,164.293725 C402.706524,164.358289 403.203282,164.828543 403.28835,165.433378 C403.456893,166.514286 408.103883,183.808812 408.103883,183.808812 C408.379948,184.773239 409.071945,185.572925 410,186 L410,186 Z" id="Path" fill="#2EAC82"></path>
                <path d="M410,186 L397.961165,185.377303 L386.686796,184.789853 C386.326349,184.598036 386.047031,184.287988 385.898252,183.914553 L385.218058,181.987717 L382.744078,175.079306 L379,164.58745 C379.054383,164.376643 379.148261,164.177475 379.276893,164 L390.36466,164.140988 L402.084466,164.293725 C402.706524,164.358289 403.203282,164.828543 403.28835,165.433378 C403.456893,166.514286 408.103883,183.808812 408.103883,183.808812 C408.379948,184.773239 409.071945,185.572925 410,186 L410,186 Z" id="Path" fill="#000405" opacity="0.05"></path>
                <path d="M408,184 C408,184 409.557876,187.315152 408,187.593939 L418.005161,188 C418.005161,188 419.103742,187.745455 418.992022,186.951515 C418.82825,186.341482 418.485191,185.791601 418.005161,185.369697 L408.465501,184.157576 L408,184 Z" id="Path" fill="#000405" opacity="0.05"></path>
                <path d="M409.71056,186.99391 C409.964063,186.933469 410.070802,186.44323 409.950721,185.89255 C409.830641,185.341871 409.517097,184.94565 409.283607,185.00609 C409.050118,185.066531 408.923366,185.55677 409.050118,186.10745 C409.176869,186.658129 409.470399,187.05435 409.71056,186.99391 Z" id="Path" fill="#C7FDFB"></path>
                <path d="M407,188 L397.44296,187.585781 L386.434144,186.967543 C386.077326,186.763287 385.803569,186.429175 385.664173,186.027821 L385,184 L405.418915,184.500773 C405.682445,185.779788 406.223567,186.977389 407,188 Z" id="Path" fill="#2EAC82"></path>
                <path d="M411,214 C411,214 412.245081,223.109677 415,225 L414.141324,214.296774 L411,214 Z" id="Path" fill="#3F3D56"></path>
                <polygon id="Path" fill="#3F3D56" points="427 211.887631 427.959538 275 431 211"></polygon>
                <rect id="Rectangle" fill="#2EAC82" x="155" y="34" width="156" height="193" rx="18.18"></rect>
                <rect id="Rectangle" fill="#FFFFFF" x="169" y="47" width="128" height="159"></rect>
                <g id="Group-21" transform="translate(185.000000, 118.000000)" fill="#2EAC82">
                    <g id="Group-19" transform="translate(2.000000, 10.000000)" opacity="0.29">
                        <g id="Group" transform="translate(0.000000, 49.000000)">
                            <rect id="Rectangle" x="0.247051282" y="0.07" width="93.1865385" height="1"></rect>
                        </g>
                        <g id="Group" transform="translate(0.000000, 36.000000)">
                            <rect id="Rectangle" x="0.247051282" y="0.01" width="93.1865385" height="1"></rect>
                        </g>
                        <g id="Group" transform="translate(0.000000, 24.000000)">
                            <rect id="Rectangle" x="0.247051282" y="0.45" width="93.1865385" height="1"></rect>
                        </g>
                        <g id="Group" transform="translate(0.000000, 11.000000)">
                            <rect id="Rectangle" x="0.247051282" y="0.385" width="93.1865385" height="1"></rect>
                        </g>
                        <g id="Group">
                            <rect id="Rectangle" x="0.247051282" y="0.325" width="93.1865385" height="1"></rect>
                        </g>
                    </g>
                    <g id="Group-18">
                        <g id="Group" opacity="0.71">
                            <polygon id="Path" points="95.436 71.52 0.234 71.52 0.234 0.174 2.034 0.174 2.034 69.72 95.436 69.72"></polygon>
                        </g>
                        <path d="M12.5882353,21 L18.4117647,21 C19.8412076,21 21,22.0824249 21,23.4176637 L21,70 L10,70 L10,23.4599729 C10,22.124734 11.1587924,21.0423091 12.5882353,21.0423091 L12.5882353,21 Z" id="Path"></path>
                        <path d="M33.4782353,38 L39.4894118,38 C40.8759714,38 42,39.0317061 42,40.3043801 L42,40.3043801 L42,70 L31,70 L31,40.3043801 C31.0033653,39.0445263 32.1058022,38.0194285 33.4782353,38 Z" id="Path"></path>
                        <path d="M70.9829412,48 L75.9976471,48 C77.6558008,48 79,49.2402381 79,50.7701493 L79,70 L68,70 L68,50.7701493 C68,49.2472053 69.3323732,48.0098466 70.9829412,48 Z" id="Path"></path>
                        <path d="M50.9811926,15 L55.999414,15 C57.6565919,15 59,16.2439514 59,17.7784431 L59,70 L48,70 L48,17.7844311 C47.99829,17.0475417 48.3127769,16.3402019 48.8742835,15.8180194 C49.4357902,15.2958369 50.1983207,15.0015864 50.9941262,15 L50.9811926,15 Z" id="Path"></path>
                    </g>
                </g>
                <path d="M105.83598,252 L105.538839,252.223982 C105.302339,252.399536 105.041582,252.611412 104.756569,252.829341 C103.925436,253.51883 103.137632,254.258768 102.397632,255.044951 C100.232746,257.357419 98.9228992,259.681994 98.910771,261.897604 C98.9056015,262.908228 99.1941881,263.898654 99.7415536,264.748841 L99.7961305,264.300876 L96.2789489,267.678774 L96,267.945131 L96.2910771,268.199382 L104.835403,275.893483 L105.005198,276.044822 L105.217442,275.954019 L115.399076,271.680191 L115.144383,271.680191 L115.320243,271.758887 L115.829627,271.970762 L117.648859,272.733514 C119.571181,273.520479 121.554144,274.307445 123.500722,275.039928 C124.179902,275.300232 124.853018,275.548429 125.501877,275.784518 C129.401097,277.201056 132.414958,278.115147 134.209934,278.351236 L133.912792,277.891164 L129.388969,292.104972 L129.285879,292.437919 L129.613341,292.552937 L137.417846,295.264941 L137.175282,294.938047 L137.284435,299 L138,299 L137.890846,294.938047 L137.890846,294.689851 L137.66041,294.611154 L129.855905,291.89915 L130.080277,292.341061 L134.616229,278.139361 L134.749639,277.733771 L134.325152,277.679289 C132.602945,277.449253 129.625469,276.547269 125.768698,275.142839 L123.773607,274.404302 C121.839157,273.671819 119.856194,272.884853 117.939936,272.103941 L116.120705,271.34119 L115.617384,271.129315 L115.441525,271.056672 L115.30205,270.996136 L115.162576,271.056672 L104.980941,275.3305 L105.356916,275.391036 L96.7822697,267.721149 L96.7822697,268.241757 L100.293387,264.863859 L100.505631,264.664091 L100.347964,264.415894 C99.8749183,263.681377 99.6262828,262.825284 99.6323997,261.952087 C99.6323997,259.960459 100.845221,257.775116 102.925209,255.58372 C103.644345,254.817276 104.409857,254.095547 105.217442,253.422591 C105.49639,253.192555 105.751083,252.992787 105.975455,252.817233 L106.260468,252.605358 L105.83598,252 Z" id="Path" fill="#FFFFFF"></path>
                <path d="M139,285.217077 L139.445544,285.286541 L140.734009,285.477569 C142.124829,285.691751 143.696274,285.9233 145.424262,286.178003 C150.349329,286.895803 155.491148,287.613603 160.59082,288.285094 C163.179791,288.628558 165.686478,288.946937 168.110879,289.240232 C179.682981,290.652677 188.431297,291.428365 193.241967,291.353111 L193.476781,291.353111 L193.567094,291.144718 L195.97544,285.547033 L195.62623,285.755427 L195.812876,285.755427 L196.366796,285.790159 L198.395827,285.917511 C200.539255,286.044863 202.815142,286.178003 205.121133,286.299566 C207.005663,286.397974 208.823964,286.484805 210.539911,286.560058 C215.928584,286.797395 220.143189,286.901592 222.72614,286.826339 L222.358867,286.513748 L223.49079,302.675832 L223.49079,303 L225.363279,303 L229.421341,302.947902 C233.635946,302.884226 237.814426,302.791606 241.734009,302.670043 C251.541997,302.363242 257.90003,301.917511 259.441371,301.269175 L259.670164,301.170767 L259.670164,300.93343 L259.22462,294.455861 L259.068077,294.762663 L270.965306,287.237337 L270.7907,287.295224 L271.121848,287.295224 L272.055082,287.22576 L275.372578,286.982634 C278.810492,286.710564 282.242385,286.403763 285.451505,286.073806 C292.285186,285.356006 297.131982,284.609262 299.179076,283.839363 L298.709449,283.602026 L300.431416,290.172214 L300.479583,290.363242 L300.678271,290.421129 L320.444769,295.816208 L320.619374,295.816208 L337.23696,292.342981 L336.941937,292.273517 L340.554456,295.075253 L341,294.54848 L337.387481,291.746744 L337.255022,291.642547 L337.092459,291.677279 L320.468852,295.150507 L320.643458,295.150507 L300.870939,289.749638 L301.117794,289.998553 L299.395827,283.376266 L299.293472,283 L298.920179,283.138929 C296.957377,283.879884 292.134665,284.626628 285.373234,285.327062 C282.176155,285.662808 278.750283,285.969609 275.31237,286.23589 C274.108197,286.334298 273.000358,286.41534 272.000894,286.484805 L271.073681,286.54848 L270.742534,286.54848 L270.573949,286.606368 L258.676721,294.131693 L258.502116,294.23589 L258.502116,294.438495 L258.94766,300.916064 L259.15839,300.580318 C257.749508,301.15919 251.331267,301.622287 241.697884,301.9233 C237.784322,302.050651 233.5938,302.137482 229.397258,302.201158 L225.345216,302.253256 L223.809896,302.253256 L224.165127,302.571635 L223.039225,286.403763 L223.039225,286.073806 L222.762265,286.073806 C220.203398,286.143271 216.006855,286.039074 210.630224,285.807525 C208.896215,285.732272 207.077914,285.639653 205.211446,285.541245 C202.905455,285.419682 200.629568,285.29233 198.48614,285.164978 L196.46313,285.037627 L195.90921,285.002894 L195.463666,285.002894 L195.367332,285.228654 L192.958987,290.832127 L193.278092,290.617945 C188.515589,290.693198 179.785335,289.917511 168.249359,288.510854 C165.841013,288.21563 163.318271,287.89725 160.73532,287.555716 C155.641669,286.890014 150.499851,286.166425 145.574784,285.448625 C143.852817,285.199711 142.281371,284.962373 140.890551,284.75398 L139.608107,284.557164 L139.156542,284.493488 L139,285.217077 Z" id="Path" fill="#FFFFFF"></path>
                <path d="M212,307.564767 L204.89491,298.068221 L204.774485,297.905009 L204.60589,297.905009 C202.046853,298.201209 193.466554,297.651123 180.833945,296.490501 L175.529213,295.988774 C171.007244,295.553541 166.413021,295.088083 161.981372,294.622625 L157.766488,294.169257 L156.604384,294.042314 L156.194938,294 L156.056449,294 L155.948067,294.078584 L148,299.881693 L148.415467,300.455959 L156.351491,294.695164 L156.104619,294.761658 L156.514065,294.803972 L157.676169,294.930915 L161.891053,295.384283 C166.322702,295.849741 170.922947,296.315199 175.438894,296.756477 L180.749647,297.252159 C193.466554,298.418826 202.040832,298.974957 204.672123,298.666667 L204.346975,298.527634 L211.452065,308 L212,307.564767 Z" id="Path" fill="#FFFFFF"></path>
                <path d="M364.710285,285 L364.859504,277.522779 L364.674472,277.835864 L365.056474,277.608724 C365.360882,277.424556 365.695133,277.209693 366.05326,276.957997 C367.123614,276.223183 368.135521,275.402075 369.079431,274.502423 C371.538567,272.145073 373.144169,269.529887 373.460514,266.705977 L373.1382,267.025202 L377,266.724394 L376.946281,266 L373.084481,266.306947 L372.79798,266.306947 L372.762167,266.601616 C372.463728,269.229079 370.971534,271.703069 368.584022,273.968336 C367.671866,274.839414 366.69168,275.631955 365.653352,276.337964 C365.301194,276.577383 364.97888,276.792246 364.68641,276.951858 C364.513315,277.062359 364.393939,277.129887 364.328283,277.166721 L364.149219,277.264943 L364.149219,277.510501 L364,284.987722 L364.710285,285 Z" id="Path" fill="#FFFFFF"></path>
                <path d="M116.609952,248 C116.537943,248.041933 116.411927,248.119808 116.237906,248.239617 C115.943869,248.43131 115.637831,248.658946 115.259785,248.916534 C114.221237,249.692898 113.244219,250.54807 112.337423,251.474441 C108.820988,255.020767 107.158783,258.926518 108.418938,263 L109.091022,262.796326 C107.926878,259.022364 109.487071,255.35024 112.841486,251.971645 C113.728889,251.076694 114.686009,250.253425 115.70384,249.509585 C116.045882,249.257987 116.363921,249.036342 116.645956,248.850639 C116.813977,248.736821 116.933992,248.664936 117,248.628994 L116.609952,248 Z" id="Path" fill="#FFFFFF"></path>
                <path d="M92.0656363,261 C91.8452675,261.340931 91.6659452,261.70564 91.5312418,262.08686 C90.7986781,264.126544 90.8244797,266.353466 91.6041137,268.376392 C92.7518475,271.666667 95.5331282,275.069785 100.288025,278.508537 C104.642524,281.305759 109.250843,283.705373 114.054757,285.67706 L113.854359,285.463252 L116.319861,293 L117,292.786192 L114.534498,285.279139 L114.479844,285.124722 L114.328027,285.06533 C109.569198,283.104814 105.005476,280.719052 100.694894,277.938382 C96.0675227,274.588716 93.4076953,271.30438 92.2842523,268.156644 C91.5552408,266.286996 91.5251295,264.225555 92.1992349,262.336303 C92.290339,262.093984 92.3978612,261.857875 92.5210862,261.629547 C92.5635949,261.552339 92.6061035,261.47513 92.6546848,261.40386 L92.0656363,261 Z" id="Path" fill="#FFFFFF"></path>
                <path d="M364.229834,255.476222 C364.229834,255.506363 364.295631,255.554588 364.355447,255.638982 C364.415262,255.723376 364.576764,255.928332 364.702377,256.103148 C365.090015,256.652459 365.445525,257.224093 365.767093,257.815137 C367.166776,260.425318 367.72306,263.077696 366.963403,265.537173 C366.030281,268.58138 363.13521,271.095111 357.823591,272.873409 C350.412448,275.363027 343.802833,277.466845 338.084469,279.196919 C336.090618,279.799732 334.349986,280.316142 332.862574,280.746149 L331.522706,281.125921 L331.068108,281.252512 L331.409056,281.342934 L326.378571,276.38781 L326.25894,276.267247 L326.091456,276.267247 L314.780341,277.61152 L315.061474,277.701942 L311.472543,274.398526 L311,274.922974 L314.588931,278.220362 L314.708562,278.334896 L314.899972,278.334896 L326.211088,276.996651 L325.923973,276.900201 L330.954458,281.855325 L331.098016,282 L331.295407,281.945747 L331.750005,281.819156 L333.095854,281.433356 C334.579279,281.005358 336.325892,280.486939 338.323731,279.884126 C344.042095,278.148024 350.657692,276.044206 358.062854,273.554588 C363.571863,271.70998 366.646381,269.039518 367.633337,265.754186 C368.446828,263.077696 367.854655,260.244474 366.37123,257.48359 C366.041609,256.857267 365.671968,256.253183 365.264642,255.675151 C365.133048,255.488279 365.007436,255.319491 364.893786,255.180844 C364.852625,255.115464 364.804486,255.054821 364.750229,255 L364.229834,255.476222 Z" id="Path" fill="#FFFFFF"></path>
                <path d="M423.59459,185.864894 C423.078377,186.045035 422.516213,186.045035 422,185.864894 C423.479828,185.491066 423.165742,182 423.165742,182 L423.250304,182.042206 L423.999278,182.476329 C423.999278,182.476329 424.035518,185.533273 423.59459,185.864894 Z" id="Path" fill="url(#linearGradient-13)"></path>
                <path d="M412.596615,219 L411,275 C411.544658,274.976258 412.073067,274.795475 412.528914,274.476916 L415,224.844106 L412.596615,219 Z" id="Path" fill="#3F3D56"></path>
                <path d="M247.465246,94.4608093 C246.444906,95.8847977 244.996179,96.9413051 243.111275,97.6915786 C242.410278,97.9595334 241.623604,98.1662413 240.688941,98.3652935 L240.688941,104 L235.24453,104 L235.24453,98.7940211 C235.10433,98.7940211 234.987497,98.7940211 234.839509,98.7940211 L231.747333,98.7940211 L231.747333,104 L226.302922,104 L226.302922,98.7940211 L218,98.7940211 L218,94.4301859 L219.269584,94.4301859 C220.11078,94.4301859 220.694945,94.3536274 220.990921,94.2234779 C221.286898,94.0703609 221.497197,93.8789646 221.621819,93.5956981 C221.74644,93.343055 221.800962,92.7458987 221.800962,91.8348524 L221.800962,74.1881152 C221.800962,73.2617572 221.738651,72.656945 221.621819,72.396646 C221.497197,72.1440029 221.286898,71.9296391 220.990921,71.7841779 C220.694945,71.6387167 220.118569,71.5698141 219.269584,71.5698141 L218,71.5698141 L218,67.198323 L226.302922,67.198323 L226.302922,62 L231.747333,62 L231.747333,67.198323 L235.24453,67.198323 L235.24453,62 L240.688941,62 L240.688941,67.5734597 C241.498982,67.7342326 242.223346,67.917973 242.846454,68.1629603 C244.44317,68.8060518 245.673809,69.7324098 246.538372,70.9267226 C247.402936,72.1210354 247.823534,73.4454976 247.823534,74.8771418 C247.823534,75.9259934 247.597657,76.9212541 247.153692,77.855268 C246.686361,78.7892818 246.032097,79.6237696 245.183111,80.3434196 C244.334126,81.0630696 243.189164,81.6449143 241.78717,82.1119213 C243.290419,82.4947138 244.450959,82.9081298 245.237633,83.3674809 C246.374806,83.9952607 247.309469,84.8756836 247.979311,86.0317171 C248.66473,87.1647831 248.999651,88.4433102 248.999651,89.844331 C249.015229,91.4979949 248.508953,93.0597886 247.465246,94.4608093 Z M239.995732,86.5982501 C239.559556,85.9551586 238.889715,85.47284 237.97063,85.0977032 C237.074911,84.7608458 235.71965,84.6000729 233.897057,84.6000729 L229.730019,84.6000729 L229.730019,91.4597156 C229.745597,92.4320087 229.79233,93.0061976 229.854641,93.1669705 C229.932529,93.3813343 230.072729,93.5267955 230.236295,93.6186657 C230.423227,93.6952242 230.890559,93.7411593 231.677233,93.7411593 L234.029468,93.7411593 C235.400307,93.7411593 236.53748,93.6186657 237.433198,93.3660226 C238.321128,93.1133795 239.100014,92.6080933 239.723122,91.8118848 C240.35402,91.0462997 240.673363,90.0969741 240.673363,88.9868757 C240.673363,88.0375501 240.447486,87.2566533 239.995732,86.5982501 Z M233.289527,79.9835946 C235.135486,79.9835946 236.490747,79.8381334 237.378676,79.5242435 C238.258817,79.2256653 238.928659,78.7510026 239.372624,78.1538462 C239.824378,77.5337222 240.042466,76.8370397 240.042466,76.0408312 C240.042466,75.2063434 239.847744,74.5020051 239.419357,73.9048487 C238.998759,73.323004 238.391228,72.8942763 237.581187,72.6492891 C236.778934,72.4043019 235.361362,72.2818082 233.289527,72.2818082 L229.761174,72.2818082 L229.761174,79.9835946 L233.289527,79.9835946 Z" id="Shape" fill="#2EAC82"></path>
                <path d="M233,276 L187.555068,274.443499 C187.013555,274.407301 174.570801,272.832701 158.379577,270.618608 C152.079982,269.755896 129.673398,263.065353 127.693869,257.014304 L127.693869,257.014304 L59,1.44040541 L169.18576,1 L232.963899,275.806946 L233,276 Z" id="Path" fill="url(#linearGradient-14)"></path>
                <path d="M391,165.167916 L390.605096,166.025487 L383.853503,177 L382.955414,176.310345 L379,165.5997 C379.057545,165.384497 379.156882,165.181175 379.292994,165 L391,165.167916 Z" id="Path" fill="url(#linearGradient-15)" opacity="0.13"></path>
            </g>
        </g>
    </g>
</svg>