<svg width="120" height="24" viewBox="0 0 120 24" fill="none" xmlns="http://www.w3.org/2000/svg">
<path d="M15.8059 15.2283C15.5499 15.5917 15.1864 15.8613 14.7135 16.0527C14.5376 16.1211 14.3402 16.1739 14.1057 16.2247V17.6625H12.7397V16.3341C12.7045 16.3341 12.6752 16.3341 12.6381 16.3341H11.8622V17.6625H10.4962V16.3341H8.413V15.2205H8.73154C8.94259 15.2205 9.08916 15.201 9.16342 15.1678C9.23769 15.1287 9.29045 15.0799 9.32172 15.0076C9.35299 14.9431 9.36666 14.7907 9.36666 14.5582V10.0552C9.36666 9.8188 9.35103 9.66447 9.32172 9.59805C9.29045 9.53358 9.23769 9.47888 9.16342 9.44176C9.08916 9.40464 8.94455 9.38706 8.73154 9.38706H8.413V8.27155H10.4962V6.94506H11.8622V8.27155H12.7397V6.94506H14.1057V8.36728C14.3089 8.4083 14.4907 8.45519 14.647 8.5177C15.0476 8.68181 15.3564 8.91819 15.5733 9.22296C15.7902 9.52772 15.8958 9.86569 15.8958 10.231C15.8958 10.4987 15.8391 10.7526 15.7277 10.991C15.6105 11.2293 15.4463 11.4422 15.2333 11.6259C15.0203 11.8095 14.733 11.958 14.3812 12.0772C14.7584 12.1748 15.0496 12.2803 15.247 12.3976C15.5323 12.5578 15.7668 12.7824 15.9349 13.0774C16.1068 13.3665 16.1909 13.6928 16.1909 14.0503C16.1948 14.4723 16.0677 14.8708 15.8059 15.2283ZM13.9318 13.222C13.8223 13.0579 13.6543 12.9348 13.4237 12.8391C13.1989 12.7531 12.8589 12.7121 12.4016 12.7121H11.3561V14.4625C11.36 14.7106 11.3717 14.8571 11.3873 14.8982C11.4069 14.9529 11.4421 14.99 11.4831 15.0134C11.53 15.033 11.6473 15.0447 11.8446 15.0447H12.4348C12.7788 15.0447 13.0641 15.0134 13.2888 14.949C13.5116 14.8845 13.707 14.7556 13.8634 14.5524C14.0217 14.357 14.1018 14.1148 14.1018 13.8315C14.1018 13.5893 14.0451 13.39 13.9318 13.222ZM12.2492 11.5341C12.7123 11.5341 13.0524 11.4969 13.2751 11.4169C13.496 11.3407 13.664 11.2195 13.7754 11.0672C13.8888 10.9089 13.9435 10.7311 13.9435 10.528C13.9435 10.315 13.8946 10.1353 13.7872 9.98291C13.6816 9.83443 13.5292 9.72503 13.326 9.66252C13.1247 9.6 12.769 9.56874 12.2492 9.56874H11.3639V11.5341H12.2492ZM18.2839 23.9902V22.8493H19.429V23.9902H18.2839ZM22.8568 15.9961V14.8513H23.998V15.9961H22.8568ZM9.14193 22.8493H10.2832V23.9902H9.14193V22.8493ZM20.5703 21.7045H23.998V22.8493H22.8568V23.9902H21.7116V22.8493H20.5703V21.7045ZM23.998 19.4227H22.8568V18.2779H23.998V19.4227ZM23.998 0.0019536L23.9961 7.99414H21.9774C22.1454 8.36337 22.3018 8.74432 22.4229 9.137H24V10.2779H22.7102C22.7825 10.6491 22.8275 11.0359 22.8626 11.4227H24V12.5636H22.8978C22.89 12.7922 22.8783 13.0188 22.8587 13.2396V14.8513H22.5832C22.3819 15.6601 22.0907 16.4415 21.7135 17.1663V18.2818H21.0491C20.7736 18.6862 20.4609 19.0593 20.1326 19.4227H22.8568V20.5695H18.9209C18.7157 20.7336 18.5008 20.8977 18.2839 21.0442V22.8513H17.1387V21.7221C16.7713 21.9136 16.3902 22.0777 15.9974 22.2261V24H14.8561V22.5817C14.0373 22.781 13.1833 22.9021 12.3039 22.9021C10.7698 22.9021 9.31585 22.5661 7.9987 21.9761V23.9902H0V15.9961H2.38222C2.11058 15.2674 1.91711 14.5055 1.80962 13.7123H0V9.1409H1.14323V12.5675H1.71778C1.71582 12.4777 1.70214 12.3917 1.70214 12.2999C1.70214 10.7702 2.03827 9.31477 2.62845 7.99805H0V0H7.9987V2.62759C8.37 2.46349 8.74913 2.30916 9.14193 2.18608V0H12.5697V1.14286H11.4284V1.74847C11.7176 1.72894 12.0088 1.70549 12.3039 1.70549C12.3938 1.70549 12.4798 1.71722 12.5697 1.71917V1.14481H13.7148V1.81294C14.5083 1.92039 15.2704 2.11184 15.9974 2.38535V0.0019536H23.998ZM1.14128 6.85714L3.23036 6.85324C3.47073 6.4547 3.73064 6.07375 4.01791 5.70843H2.28646V2.28181H5.71419V4.01465C6.07768 3.72747 6.45876 3.46569 6.85742 3.2254V1.14286H1.14128V6.85714ZM6.85742 22.8493L6.86133 21.3744C6.46267 21.1341 6.08354 20.8703 5.7181 20.5851V21.7045H2.29037V18.2779H3.56258C3.31048 17.9106 3.0877 17.5297 2.88446 17.137H1.14128V22.8493H6.85742ZM12.3039 21.9214C17.6155 21.9214 21.9266 17.6137 21.9246 12.2999C21.9246 6.98803 17.6155 2.68034 12.3039 2.68034C6.98836 2.68034 2.67926 6.98803 2.67926 12.2999C2.67926 17.6137 6.98836 21.9214 12.3039 21.9214ZM22.8568 6.85714V1.13895H17.1387V2.88156C17.5354 3.08474 17.9165 3.30745 18.2839 3.55751V2.28571H21.7116V5.71429H20.5938C20.8791 6.07766 21.1429 6.45861 21.3833 6.85714H22.8568Z" fill="white"/>
<path d="M32.104 6.19199H34.072V18H32.104V6.19199Z" fill="white"/>
<path d="M38.8359 18.096C37.7905 18.096 37.0172 17.76 36.5159 17.088C36.0145 16.4053 35.7639 15.3067 35.7639 13.792C35.7639 12.704 35.8652 11.84 36.0679 11.2C36.2705 10.5493 36.6065 10.0747 37.0759 9.77599C37.5452 9.46666 38.1852 9.31199 38.9959 9.31199C39.7532 9.31199 40.5319 9.45599 41.3319 9.74399V5.79199H43.3159V18H41.6679L41.3319 17.168C41.0545 17.4133 40.6759 17.632 40.1959 17.824C39.7159 18.0053 39.2625 18.096 38.8359 18.096ZM39.4919 16.496C40.0679 16.496 40.6812 16.3093 41.3319 15.936V11.168C40.9905 11.0507 40.6919 10.96 40.4359 10.896C40.1799 10.832 39.9025 10.8 39.6039 10.8C39.1345 10.8 38.7665 10.8853 38.4999 11.056C38.2332 11.216 38.0359 11.504 37.9079 11.92C37.7905 12.336 37.7319 12.928 37.7319 13.696C37.7319 14.4213 37.7905 14.9867 37.9079 15.392C38.0252 15.7867 38.2065 16.0693 38.4519 16.24C38.7079 16.4107 39.0545 16.496 39.4919 16.496Z" fill="white"/>
<path d="M48.6451 18.08C47.6958 18.08 46.9491 17.952 46.4051 17.696C45.8718 17.4293 45.4825 16.9867 45.2371 16.368C45.0025 15.7387 44.8851 14.8533 44.8851 13.712C44.8851 12.5493 44.9971 11.6533 45.2211 11.024C45.4558 10.3947 45.8345 9.95199 46.3571 9.69599C46.8905 9.43999 47.6371 9.31199 48.5971 9.31199C49.4398 9.31199 50.1065 9.39733 50.5971 9.56799C51.0878 9.73866 51.4451 10.0373 51.6691 10.464C51.8931 10.88 52.0051 11.4667 52.0051 12.224C52.0051 13.0133 51.7758 13.5787 51.3171 13.92C50.8691 14.2613 50.2131 14.432 49.3491 14.432H46.8371C46.8585 14.9867 46.9331 15.4187 47.0611 15.728C47.1891 16.0267 47.4131 16.2453 47.7331 16.384C48.0638 16.5227 48.5385 16.592 49.1571 16.592H51.7491V17.76C51.1731 17.8667 50.6558 17.9467 50.1971 18C49.7491 18.0533 49.2318 18.08 48.6451 18.08ZM49.1571 13.232C49.5411 13.232 49.8185 13.1573 49.9891 13.008C50.1598 12.8587 50.2451 12.5973 50.2451 12.224C50.2451 11.6693 50.1225 11.2853 49.8771 11.072C49.6318 10.8587 49.2051 10.752 48.5971 10.752C48.1385 10.752 47.7811 10.8267 47.5251 10.976C47.2798 11.1147 47.0985 11.36 46.9811 11.712C46.8745 12.064 46.8211 12.5707 46.8211 13.232H49.1571Z" fill="white"/>
<path d="M56.6781 18.096C56.1128 18.096 55.4941 18.064 54.8221 18C54.1501 17.9467 53.6648 17.8667 53.3661 17.76V16.592H57.0621C57.4995 16.592 57.8141 16.5333 58.0061 16.416C58.2088 16.2987 58.3101 16.0587 58.3101 15.696V15.392C58.3101 15.104 58.2141 14.8907 58.0221 14.752C57.8408 14.6027 57.5421 14.528 57.1261 14.528H55.8301C54.1021 14.528 53.2381 13.776 53.2381 12.272V11.792C53.2381 10.96 53.4888 10.3467 53.9901 9.95199C54.4915 9.54666 55.3395 9.34399 56.5341 9.34399C57.0141 9.34399 57.5635 9.38133 58.1821 9.45599C58.8115 9.51999 59.2968 9.59466 59.6381 9.67999V10.848H56.1501C55.7341 10.848 55.4248 10.9227 55.2221 11.072C55.0301 11.2107 54.9341 11.4507 54.9341 11.792V12.096C54.9341 12.4267 55.0355 12.6507 55.2381 12.768C55.4408 12.8747 55.7608 12.928 56.1981 12.928H57.5261C58.3475 12.928 58.9661 13.12 59.3821 13.504C59.7981 13.888 60.0061 14.432 60.0061 15.136V15.84C60.0061 16.672 59.7288 17.2587 59.1741 17.6C58.6195 17.9307 57.7875 18.096 56.6781 18.096Z" fill="white"/>
<path d="M68.1605 7.96799H64.7685V6.19199H73.5205V7.96799H70.1445V18H68.1605V7.96799Z" fill="white"/>
<path d="M74.3136 9.42399H75.8496L76.2976 10.8C76.671 10.3307 77.0656 9.96799 77.4816 9.71199C77.9083 9.44533 78.3883 9.31199 78.9216 9.31199C79.1776 9.31199 79.4176 9.34399 79.6416 9.40799V11.424C79.2363 11.3813 78.911 11.36 78.6656 11.36C78.1643 11.36 77.7323 11.4453 77.3696 11.616C77.007 11.776 76.6496 12.0373 76.2976 12.4V18H74.3136V9.42399Z" fill="white"/>
<path d="M82.3203 18.096C81.6696 18.096 81.1416 17.904 80.7363 17.52C80.3416 17.1253 80.1443 16.5973 80.1443 15.936V15.216C80.1443 14.5333 80.3736 13.9893 80.8323 13.584C81.3016 13.1787 81.9949 12.976 82.9123 12.976H85.3603V12.224C85.3603 11.904 85.3069 11.648 85.2003 11.456C85.0936 11.264 84.8963 11.12 84.6083 11.024C84.3203 10.9173 83.9043 10.864 83.3603 10.864H80.7683V9.71199C81.7389 9.44533 82.8589 9.31199 84.1283 9.31199C85.2163 9.31199 86.0216 9.52533 86.5443 9.95199C87.0776 10.3787 87.3443 11.0933 87.3443 12.096V18H85.7923L85.4563 17.072C85.3496 17.168 85.1309 17.3013 84.8003 17.472C84.4696 17.632 84.0803 17.776 83.6323 17.904C83.1949 18.032 82.7576 18.096 82.3203 18.096ZM83.2803 16.704C83.5789 16.704 83.9736 16.6293 84.4643 16.48C84.9656 16.32 85.2643 16.2133 85.3603 16.16V13.92L83.5043 14.016C82.5763 14.0907 82.1123 14.5013 82.1123 15.248V15.6C82.1123 15.984 82.2189 16.2613 82.4323 16.432C82.6563 16.6027 82.9389 16.6933 83.2803 16.704Z" fill="white"/>
<path d="M91.9659 18.096C90.9205 18.096 90.1472 17.76 89.6459 17.088C89.1445 16.4053 88.8939 15.3067 88.8939 13.792C88.8939 12.704 88.9952 11.84 89.1979 11.2C89.4005 10.5493 89.7365 10.0747 90.2059 9.77599C90.6752 9.46666 91.3152 9.31199 92.1259 9.31199C92.8832 9.31199 93.6619 9.45599 94.4619 9.74399V5.79199H96.4459V18H94.7979L94.4619 17.168C94.1845 17.4133 93.8059 17.632 93.3259 17.824C92.8459 18.0053 92.3925 18.096 91.9659 18.096ZM92.6219 16.496C93.1979 16.496 93.8112 16.3093 94.4619 15.936V11.168C94.1205 11.0507 93.8219 10.96 93.5659 10.896C93.3099 10.832 93.0325 10.8 92.7339 10.8C92.2645 10.8 91.8965 10.8853 91.6299 11.056C91.3632 11.216 91.1659 11.504 91.0379 11.92C90.9205 12.336 90.8619 12.928 90.8619 13.696C90.8619 14.4213 90.9205 14.9867 91.0379 15.392C91.1552 15.7867 91.3365 16.0693 91.5819 16.24C91.8379 16.4107 92.1845 16.496 92.6219 16.496Z" fill="white"/>
<path d="M98.5271 8.06399C98.4418 8.06399 98.3671 8.03732 98.3031 7.98399C98.2498 7.93066 98.2231 7.86133 98.2231 7.77599V6.31999C98.2231 6.22399 98.2498 6.14933 98.3031 6.09599C98.3565 6.03199 98.4311 5.99999 98.5271 5.99999H100.031C100.127 5.99999 100.196 6.03199 100.239 6.09599C100.292 6.14933 100.319 6.22399 100.319 6.31999V7.77599C100.319 7.96799 100.223 8.06399 100.031 8.06399H98.5271ZM98.2711 9.42399H100.255V18H98.2711V9.42399Z" fill="white"/>
<path d="M102.127 9.42399H103.743L104.111 10.32C104.505 10.0213 104.953 9.77599 105.455 9.58399C105.967 9.38133 106.473 9.27999 106.975 9.27999C107.913 9.27999 108.591 9.55733 109.007 10.112C109.423 10.656 109.631 11.3813 109.631 12.288V18H107.647V12.528C107.647 12.0693 107.519 11.712 107.263 11.456C107.007 11.2 106.66 11.072 106.223 11.072C105.828 11.072 105.465 11.1307 105.135 11.248C104.804 11.3653 104.463 11.5413 104.111 11.776V18H102.127V9.42399Z" fill="white"/>
<path d="M119.403 10.512L117.883 10.72C118.118 10.9333 118.304 11.1787 118.443 11.456C118.592 11.7333 118.667 12.1333 118.667 12.656C118.667 13.4347 118.422 14.064 117.931 14.544C117.44 15.024 116.662 15.264 115.595 15.264H114.139C113.371 15.264 112.987 15.4987 112.987 15.968C112.987 16.1707 113.062 16.32 113.211 16.416C113.371 16.5013 113.563 16.544 113.787 16.544H116.331C117.344 16.544 118.102 16.7467 118.603 17.152C119.115 17.5467 119.371 18.176 119.371 19.04V19.312C119.371 20.1547 119.099 20.8053 118.555 21.264C118.022 21.7227 117.222 21.952 116.155 21.952H113.643C112.8 21.952 112.118 21.7707 111.595 21.408C111.083 21.0453 110.827 20.5333 110.827 19.872V19.568C110.827 19.1307 110.944 18.7467 111.179 18.416C111.424 18.096 111.75 17.8453 112.155 17.664C111.878 17.5147 111.664 17.3227 111.515 17.088C111.376 16.8427 111.307 16.576 111.307 16.288C111.307 15.872 111.43 15.5253 111.675 15.248C111.931 14.96 112.283 14.768 112.731 14.672C112.219 14.4267 111.851 14.0907 111.627 13.664C111.414 13.2267 111.307 12.7413 111.307 12.208C111.307 11.248 111.595 10.544 112.171 10.096C112.758 9.63733 113.627 9.40799 114.779 9.40799H119.403V10.512ZM115.387 13.776C115.942 13.776 116.326 13.6533 116.539 13.408C116.763 13.1627 116.875 12.8267 116.875 12.4C116.875 11.8667 116.752 11.488 116.507 11.264C116.272 11.0293 115.926 10.912 115.467 10.912H114.571C114.08 10.912 113.712 11.024 113.467 11.248C113.222 11.4613 113.099 11.8187 113.099 12.32C113.099 12.8213 113.211 13.1893 113.435 13.424C113.67 13.6587 114.011 13.776 114.459 13.776H115.387ZM114.123 18.032C113.707 18.032 113.366 18.128 113.099 18.32C112.832 18.5227 112.699 18.8107 112.699 19.184V19.44C112.699 19.8133 112.827 20.0907 113.083 20.272C113.339 20.4533 113.702 20.544 114.171 20.544H115.915C116.416 20.544 116.806 20.448 117.083 20.256C117.36 20.064 117.499 19.7813 117.499 19.408V19.136C117.499 18.4 117.008 18.032 116.027 18.032H114.123Z" fill="white"/>
</svg>
