<svg width="134px" height="24px" viewBox="0 0 134 24" version="1.1" xmlns="http://www.w3.org/2000/svg" xmlns:xlink="http://www.w3.org/1999/xlink">
    <g id="Page-1" stroke="none" stroke-width="1" fill="none" fill-rule="evenodd">
        <g id="Logo" fill="#FFFFFF">
            <g id="Bitcoins-Direct" transform="translate(29.000000, 3.000000)" font-family="HelveticaNeue, Helvetica Neue" font-size="16" font-weight="normal">
                <text>
                    <tspan x="0.5" y="15">Bitcoins Direct</tspan>
                </text>
            </g>
            <g id="bitcoin-qr-code-on-mobile-phone-screen" fill-rule="nonzero">
                <path d="M15.5229093,14.9605685 C15.2714873,15.3175493 14.9145064,15.5824061 14.4500475,15.7704928 C14.2773148,15.8376666 14.0834704,15.8894864 13.8531602,15.939387 L13.8531602,17.3519564 L12.5116031,17.3519564 L12.5116031,16.0468651 C12.4770565,16.0468651 12.4482678,16.0468651 12.411802,16.0468651 L11.649859,16.0468651 L11.649859,17.3519564 L10.3083019,17.3519564 L10.3083019,16.0468651 L8.26237939,16.0468651 L8.26237939,14.9528915 L8.57521745,14.9528915 C8.78249666,14.9528915 8.92644055,14.933699 8.99937212,14.9010717 C9.07230369,14.8626866 9.12412349,14.8147054 9.15483152,14.743693 C9.18553955,14.6803577 9.19897432,14.5306561 9.19897432,14.3022651 L9.19897432,9.87838949 C9.19897432,9.64616001 9.1836203,9.49453911 9.15483152,9.42928454 C9.12412349,9.36594923 9.07230369,9.31221018 8.99937212,9.27574439 C8.92644055,9.23927861 8.78441591,9.22200534 8.57521745,9.22200534 L8.26237939,9.22200534 L8.26237939,8.12611251 L10.3083019,8.12611251 L10.3083019,6.82294047 L11.649859,6.82294047 L11.649859,8.12611251 L12.5116031,8.12611251 L12.5116031,6.82294047 L13.8531602,6.82294047 L13.8531602,8.22015585 C14.0527624,8.26046014 14.2312528,8.30652219 14.3847929,8.36793825 C14.7782396,8.52915541 15.0814814,8.76138489 15.2945183,9.06078818 C15.5075553,9.36019148 15.6111949,9.69222205 15.6111949,10.0511222 C15.6111949,10.3140597 15.5555366,10.5635624 15.4461392,10.7977111 C15.3309841,11.0318599 15.169767,11.2410583 14.9605685,11.421468 C14.75137,11.6018777 14.46924,11.7477408 14.1237747,11.8648152 C14.4941903,11.9607778 14.7801588,12.0644174 14.9740033,12.1795725 C15.254214,12.3369512 15.4845243,12.5576651 15.6495799,12.8474722 C15.8184741,13.1315214 15.9010019,13.4520365 15.9010019,13.8032596 C15.9048404,14.217818 15.7800891,14.6093454 15.5229093,14.9605685 Z M13.6823467,12.9894968 C13.5748686,12.8282796 13.409813,12.7073668 13.1833412,12.6133234 C12.9626273,12.5288763 12.6286774,12.4885721 12.1795725,12.4885721 L11.1527727,12.4885721 L11.1527727,14.2082218 C11.1566112,14.4519667 11.1681268,14.5959106 11.1834808,14.6362149 C11.2026733,14.689954 11.2372198,14.7264198 11.2775241,14.7494508 C11.3235862,14.7686433 11.4387413,14.7801588 11.6325857,14.7801588 L12.2121998,14.7801588 C12.5499881,14.7801588 12.8301989,14.7494508 13.0509129,14.6861155 C13.2697076,14.6227802 13.4616328,14.4961095 13.6151729,14.2965073 C13.7706323,14.1045822 13.8493216,13.8665949 13.8493216,13.5883034 C13.8493216,13.3503162 13.7936633,13.1545525 13.6823467,12.9894968 Z M12.0298709,11.3312632 C12.4847336,11.3312632 12.8186834,11.2947974 13.0374781,11.2161081 C13.2543536,11.1412572 13.4194092,11.0222636 13.5288066,10.872562 C13.6401232,10.7171026 13.6938622,10.5424506 13.6938622,10.3428484 C13.6938622,10.13365 13.6458809,9.95707881 13.5403221,9.80737717 C13.4366825,9.66151402 13.2869808,9.55403592 13.0873786,9.49261986 C12.8896957,9.4312038 12.5403919,9.40049577 12.0298709,9.40049577 L11.1604497,9.40049577 L11.1604497,11.3312632 L12.0298709,11.3312632 Z M17.9565207,23.5684132 L17.9565207,22.4475701 L19.0812023,22.4475701 L19.0812023,23.5684132 L17.9565207,23.5684132 Z M22.4475701,15.7148345 L22.4475701,14.5901529 L23.5684132,14.5901529 L23.5684132,15.7148345 L22.4475701,15.7148345 Z M8.97826035,22.4475701 L10.0991035,22.4475701 L10.0991035,23.5684132 L8.97826035,23.5684132 L8.97826035,22.4475701 Z M20.2020454,21.3228885 L23.5684132,21.3228885 L23.5684132,22.4475701 L22.4475701,22.4475701 L22.4475701,23.5684132 L21.3228885,23.5684132 L21.3228885,22.4475701 L20.2020454,22.4475701 L20.2020454,21.3228885 Z M23.5684132,19.0812023 L22.4475701,19.0812023 L22.4475701,17.9565207 L23.5684132,17.9565207 L23.5684132,19.0812023 Z M23.5684132,0.00191925189 L15.710996,0.00191925189 L15.710996,2.34340656 C14.9970343,2.07471129 14.248526,1.88662461 13.4693098,1.78106576 L13.4693098,1.12468161 L12.3446282,1.12468161 L12.3446282,1.68894166 C12.2563426,1.68702241 12.1718955,1.6755069 12.0836099,1.6755069 C11.7938029,1.6755069 11.5078343,1.69853792 11.2237851,1.71773044 L11.2237851,1.12276236 L12.3446282,1.12276236 L12.3446282,-3.90798505e-14 L8.97826035,-3.90798505e-14 L8.97826035,2.14764287 C8.59249072,2.26855574 8.22015585,2.42017664 7.85549799,2.58139379 L7.85549799,-3.90798505e-14 L-4.54747351e-13,-3.90798505e-14 L-4.54747351e-13,7.85741724 L2.58139379,7.85741724 C2.00177972,9.15099302 1.6716684,10.5808357 1.6716684,12.0836099 C1.6716684,12.1738147 1.68510316,12.2582618 1.68702241,12.3465474 L1.12276236,12.3465474 L1.12276236,8.9801796 L-4.54747351e-13,8.9801796 L-4.54747351e-13,13.471229 L1.77722725,13.471229 C1.88278611,14.2504453 2.07279204,14.9989535 2.33956806,15.7148345 L-4.54747351e-13,15.7148345 L-4.54747351e-13,23.5684132 L7.85549799,23.5684132 L7.85549799,21.5896645 C9.14907377,22.1692786 10.5769972,22.4993899 12.0836099,22.4993899 C12.9472733,22.4993899 13.7859863,22.3803963 14.5901529,22.1846326 L14.5901529,23.5780095 L15.710996,23.5780095 L15.710996,21.8353288 C16.0967656,21.6894656 16.4710197,21.5282485 16.8318391,21.3401618 L16.8318391,22.4494894 L17.9565207,22.4494894 L17.9565207,20.6741814 C18.1695577,20.5302375 18.3806754,20.3690203 18.5821968,20.2078032 L22.4475701,20.2078032 L22.4475701,19.0812023 L19.772133,19.0812023 C20.0945673,18.7242215 20.4016476,18.3576443 20.6722621,17.9603592 L21.3248078,17.9603592 L21.3248078,16.8644664 C21.6952234,16.1524239 21.9811919,15.3847232 22.1788749,14.5901529 L22.4494894,14.5901529 L22.4494894,13.0067701 C22.4686819,12.7898946 22.4801974,12.5672614 22.4878744,12.3427089 L23.5703325,12.3427089 L23.5703325,11.2218658 L22.4533279,11.2218658 C22.4187813,10.8418539 22.3746386,10.4618421 22.3036262,10.0971842 L23.5703325,10.0971842 L23.5703325,8.9763411 L22.0214962,8.9763411 C21.9025026,8.59057147 21.7489624,8.21631735 21.5839068,7.85357874 L23.566494,7.85357874 L23.5684132,0.00191925189 Z M1.1208431,6.73657414 L1.1208431,1.12276236 L6.73465489,1.12276236 L6.73465489,3.16868487 C6.3431275,3.40475286 5.96887338,3.66193261 5.61189253,3.94406264 L5.61189253,2.24168621 L2.24552471,2.24168621 L2.24552471,5.60805403 L3.94598189,5.60805403 C3.66385186,5.96695413 3.40859136,6.34120825 3.17252338,6.73273564 L1.1208431,6.73657414 Z M6.73465489,22.4475701 L1.1208431,22.4475701 L1.1208431,16.8356776 L2.83281579,16.8356776 C3.03241799,17.2214472 3.2512127,17.5957013 3.4987962,17.9565207 L2.24936322,17.9565207 L2.24936322,21.3228885 L5.61573103,21.3228885 L5.61573103,20.2231572 C5.97463114,20.503368 6.34696601,20.762467 6.73849339,20.9985349 L6.73465489,22.4475701 Z M12.0836099,21.5359255 C6.86324476,21.5359255 2.63129434,17.3039751 2.63129434,12.0836099 C2.63129434,6.86516402 6.86324476,2.6332136 12.0836099,2.6332136 C17.3001366,2.6332136 21.532087,6.86516402 21.532087,12.0836099 C21.5340062,17.3039751 17.3001366,21.5359255 12.0836099,21.5359255 Z M22.4475701,6.73657414 L21.0004542,6.73657414 C20.7643862,6.34504675 20.5052872,5.97079263 20.2250764,5.61381178 L21.3228885,5.61381178 L21.3228885,2.24552471 L17.9565207,2.24552471 L17.9565207,3.49495769 C17.5957013,3.24929345 17.2214472,3.03049874 16.8318391,2.83089654 L16.8318391,1.11892385 L22.4475701,1.11892385 L22.4475701,6.73657414 Z" id="Shape"></path>
            </g>
        </g>
    </g>
</svg>