<svg width="48px" height="49px" viewBox="0 0 48 49" version="1.1" xmlns="http://www.w3.org/2000/svg" xmlns:xlink="http://www.w3.org/1999/xlink">
    <!-- Generator: sketchtool 55.1 (78136) - https://sketchapp.com -->
    <title>E72DFE5B-CAD4-449E-B137-A8676F632ECD</title>
    <desc>Created with sketchtool.</desc>
    <g id="Pages" stroke="none" stroke-width="1" fill="none" fill-rule="evenodd">
        <g id="On-reviewl" transform="translate(-390.000000, -292.000000)" fill="#2EAC82">
            <g id="Group-2" transform="translate(222.000000, 255.000000)">
                <g id="Upload/Drag-upload">
                    <g id="Group" transform="translate(87.000000, 37.484375)">
                        <path d="M113.519052,15 L107.77533,15 C107.757446,15 107.739703,14.999428 107.722121,14.9983023 C106.13835,19.2357735 102.02911,22.2554028 97.2094184,22.2554028 C91.0186276,22.2554028 86,17.2733611 86,11.1277014 C86,4.98204161 91.0186276,-1.0658141e-14 97.2094184,-1.0658141e-14 C101.416847,-1.0658141e-14 105.082861,2.30116917 107,5.70484786 L107,2.73239437 C107,2.32790413 107.347127,2 107.77533,2 L128.22467,2 C128.652873,2 129,2.32790413 129,2.73239437 L129,14.2676056 C129,14.6720959 128.652873,15 128.22467,15 L122,15 C121.764876,20.0658854 119.669615,24.6378021 116.391909,28.0279341 C116.969515,28.8899067 117.174796,29.8364313 116.703541,30.8516848 C115.790998,32.8176347 113.531029,36.2003929 113.188739,36.2003929 C112.295748,36.2003929 111.571837,36.9207835 111.571837,37.8094303 L111.571837,48 L81,48 L81,35.1277014 C81,28.0185271 86.7912923,22.2554028 93.9352134,22.2554028 L104.380358,22.2554028 C106.054488,22.2554028 107.654335,22.5718947 109.122777,23.1480336 C111.600857,21.2524128 113.271764,18.32785 113.519052,15 Z M113.396476,8.5 C114.62756,8.5 115.625551,7.55727564 115.625551,6.3943662 C115.625551,5.23145676 114.62756,4.28873239 113.396476,4.28873239 C112.165392,4.28873239 111.167401,5.23145676 111.167401,6.3943662 C111.167401,7.55727564 112.165392,8.5 113.396476,8.5 Z M115.625551,12.8943662 L115.625551,11.1549296 C115.625551,11.0032457 115.755723,10.8802817 115.9163,10.8802817 C116.076876,10.8802817 116.207048,11.0032457 116.207048,11.1549296 L116.207048,12.8943662 L117.563877,12.8943662 L117.563877,10.6971831 C117.563877,9.48371238 116.522495,8.5 115.237885,8.5 L111.555066,8.5 C110.270457,8.5 109.229075,9.48371238 109.229075,10.6971831 L109.229075,12.8943662 L110.488987,12.8943662 L110.488987,11.1549296 C110.488987,11.0032457 110.61916,10.8802817 110.779736,10.8802817 C110.940312,10.8802817 111.070485,11.0032457 111.070485,11.1549296 L111.070485,12.8943662 L115.625551,12.8943662 Z M119.005933,6.00284222 L119.005933,8.01987902 L127.009637,8.01987902 L127.009637,6.00284222 L119.005933,6.00284222 Z M119.002878,9.00182532 L119.002878,11.0061728 L125.005666,11.0061728 L125.005666,9.00182532 L119.002878,9.00182532 Z M98.9176715,29.0979535 L101,27.015625 L97.5,23.515625 L94,27.015625 L95.8020268,28.8176518 L94.0412842,43.5859285 L97.0607312,46.5865283 L100.098876,43.5859285 L98.9176715,29.0979535 Z" id="Combined-Shape"></path>
                    </g>
                </g>
            </g>
        </g>
    </g>
</svg>